<svg width="20" height="20" viewBox="0 0 20 20" fill="none" xmlns="http://www.w3.org/2000/svg">
<path d="M10.0008 1.66992C5.41748 1.66992 1.66748 5.41992 1.66748 10.0033C1.66748 14.5866 5.41748 18.3366 10.0008 18.3366C14.5841 18.3366 18.3341 14.5866 18.3341 10.0033C18.3341 5.41992 14.5841 1.66992 10.0008 1.66992ZM10.0008 16.6699C6.33415 16.6699 3.33415 13.6699 3.33415 10.0033C3.33415 6.33659 6.33415 3.33659 10.0008 3.33659C13.6675 3.33659 16.6675 6.33659 16.6675 10.0033C16.6675 13.6699 13.6675 16.6699 10.0008 16.6699Z" fill="#1D1D1D"/>
<path d="M14.5843 12.8366C14.001 12.2533 13.3343 11.8366 12.5843 11.5033C13.1676 10.8366 13.5843 10.0033 13.5843 9.00326C13.5843 7.00326 12.001 5.41992 10.001 5.41992C8.00098 5.41992 6.41764 7.00326 6.41764 9.00326C6.41764 10.0033 6.83431 10.8366 7.41764 11.5033C6.66764 11.8366 6.00098 12.2533 5.41764 12.8366C5.08431 13.1699 5.08431 13.6699 5.41764 14.0033C5.58431 14.1699 5.83431 14.2533 6.00098 14.2533C6.25098 14.2533 6.41764 14.1699 6.58431 14.0033C7.50098 13.0866 8.66764 12.5866 10.001 12.5866C11.251 12.5866 12.501 13.0866 13.4176 14.0033C13.751 14.3366 14.251 14.3366 14.5843 14.0033C14.9176 13.6699 14.9176 13.1699 14.5843 12.8366ZM8.08431 9.00326C8.08431 7.91992 8.91764 7.08659 10.001 7.08659C11.0843 7.08659 11.9176 7.91992 11.9176 9.00326C11.9176 10.0866 11.0843 10.9199 10.001 10.9199C8.91764 10.9199 8.08431 10.0866 8.08431 9.00326Z" fill="#1D1D1D"/>
</svg>
