<svg width="80" height="80" viewBox="0 0 80 80" fill="none" xmlns="http://www.w3.org/2000/svg">
<g clip-path="url(#clip0_30_7221)">
<path d="M38.9286 45.4933H41.4397C42.4442 45.4933 42.9766 44.9408 42.9766 43.9565V30.4263L44.5033 44.1775C44.6038 45.1618 45.1864 45.6641 46.1808 45.5435L49.3248 45.1217C50.3192 45.0011 50.7812 44.4185 50.6808 43.4342L48.8929 27.2723C48.7924 26.2879 48.2098 25.7857 47.2154 25.9062L44.0614 26.3281C43.5692 26.3783 43.2076 26.5592 42.9766 26.8404V24.7009C42.9766 23.7165 42.4442 23.1641 41.4397 23.1641H38.9286C37.9342 23.1641 37.4018 23.7165 37.4018 24.7009V43.9565C37.4018 44.9408 37.9342 45.4933 38.9286 45.4933ZM24.8259 45.4933H26.4933C27.4978 45.4933 28.0301 44.9408 28.0301 43.9565V27.5335C28.0301 26.5491 27.4978 25.9967 26.4933 25.9967H24.8259C23.8214 25.9967 23.2891 26.5491 23.2891 27.5335V43.9565C23.2891 44.9408 23.8214 45.4933 24.8259 45.4933ZM30.7522 45.4933H34.6696C35.6741 45.4933 36.2065 44.9408 36.2065 43.9565V31.0993C36.2065 30.115 35.6741 29.5725 34.6696 29.5725H30.7522C29.7578 29.5725 29.2254 30.115 29.2254 31.0993V43.9565C29.2254 44.9408 29.7578 45.4933 30.7522 45.4933ZM31.5458 33.3292C31.154 33.3292 30.8627 33.0279 30.8627 32.6462C30.8627 32.2746 31.154 31.9833 31.5458 31.9833H33.9062C34.2879 31.9833 34.5792 32.2746 34.5792 32.6462C34.5792 33.0279 34.2879 33.3292 33.9062 33.3292H31.5458ZM31.5458 43.0826C31.154 43.0826 30.8627 42.7913 30.8627 42.4096C30.8627 42.0279 31.154 41.7366 31.5458 41.7366H33.9062C34.2879 41.7366 34.5792 42.0279 34.5792 42.4096C34.5792 42.7913 34.2879 43.0826 33.9062 43.0826H31.5458Z" fill="#A4A9B0"/>
<path fill-rule="evenodd" clip-rule="evenodd" d="M62.4976 37.1656C61.6315 44.1352 57.995 50.4706 52.3881 54.7782C46.7812 59.0858 39.6631 61.0127 32.5998 60.1349C25.5365 59.2572 19.1066 55.6467 14.7245 50.0978C10.3425 44.5489 8.36724 37.5161 9.23334 30.5465C10.0994 23.5769 13.736 17.2414 19.3429 12.9339C24.9498 8.62627 32.0678 6.6994 39.1311 7.57715C46.1944 8.4549 52.6243 12.0654 57.0064 17.6143C61.3885 23.1632 63.3637 30.196 62.4976 37.1656ZM56.4136 59.4405C49.7641 64.6297 41.3369 67.085 32.882 66.2966C24.4271 65.5081 16.594 61.5365 11.009 55.2063C5.42407 48.8762 2.51642 40.6738 2.8898 32.3024C3.26318 23.9309 6.88889 16.0335 13.0141 10.25C19.1393 4.46649 27.2935 1.24115 35.7835 1.2437C44.2734 1.24624 52.447 4.47647 58.6069 10.2637C64.7669 16.0509 68.4401 23.9504 68.8637 32.3221C69.2874 40.6938 66.429 48.8944 60.8821 55.2213L78.3428 73.7785C79.5155 75.0248 79.443 76.9893 78.1816 78.1459C76.9432 79.2814 75.0221 79.2107 73.8705 77.9872L56.4136 59.4405Z" fill="#A4A9B0" stroke="#EAEEF4" stroke-width="2"/>
</g>
<defs>
<clipPath id="clip0_30_7221">
<rect width="80" height="80" fill="white"/>
</clipPath>
</defs>
</svg>
