<svg width="16" height="16" viewBox="0 0 16 16" fill="none" xmlns="http://www.w3.org/2000/svg">
<path fill-rule="evenodd" clip-rule="evenodd" d="M11.3538 6.89691L9.10485 4.64794L10.7305 3.02151L12.9786 5.26964L11.3538 6.89691ZM14.1786 4.10886L11.8929 1.82317C11.2745 1.20648 10.2122 1.17727 9.62641 1.76559L2.11928 9.27272C1.84724 9.54393 1.67867 9.90444 1.64362 10.2858L1.32735 13.7657C1.30565 14.0118 1.39327 14.2555 1.56852 14.4307C1.72624 14.5885 1.93903 14.6753 2.15851 14.6753C2.18438 14.6753 2.20941 14.6744 2.23445 14.6719L5.7143 14.3556C6.0965 14.3206 6.45616 14.1529 6.72737 13.8816L14.2353 6.37368C14.8429 5.7645 14.817 4.74808 14.1786 4.10886Z" fill="#B3C4DB"/>
</svg>
