<svg width="26" height="26" viewBox="0 0 26 26" fill="none" xmlns="http://www.w3.org/2000/svg">
<path fill-rule="evenodd" clip-rule="evenodd" d="M12.9997 0.333984C6.00649 0.333984 0.333008 6.00746 0.333008 13.0007C0.333008 19.9938 6.00649 25.6673 12.9997 25.6673C19.9929 25.6673 25.6663 19.9938 25.6663 13.0007C25.6663 6.00746 19.9929 0.333984 12.9997 0.333984ZM8.96695 7.89047C8.66941 7.59292 8.187 7.59292 7.88946 7.89047C7.59192 8.18801 7.59192 8.67042 7.88946 8.96796L11.9221 13.0006L7.88946 17.0333C7.59192 17.3309 7.59192 17.8133 7.88946 18.1108C8.187 18.4084 8.66941 18.4084 8.96695 18.1108L12.9996 14.0781L17.0323 18.1108C17.3299 18.4084 17.8123 18.4084 18.1098 18.1108C18.4074 17.8133 18.4074 17.3309 18.1098 17.0333L14.0771 13.0006L18.1098 8.96796C18.4074 8.67042 18.4074 8.18801 18.1098 7.89047C17.8123 7.59292 17.3299 7.59292 17.0323 7.89047L12.9996 11.9231L8.96695 7.89047Z" fill="#A4A9B0"/>
</svg>
