<svg width="25" height="24" viewBox="0 0 25 24" fill="none" xmlns="http://www.w3.org/2000/svg">
<path d="M21.5 5L12.5 1L3.5 5V11C3.5 16.55 7.34 21.74 12.5 23C14.8 22.44 16.83 21.1 18.38 19.29L15.26 16.17C13.32 17.46 10.68 17.24 8.97 15.53C7.02 13.58 7.02 10.41 8.97 8.46C10.92 6.51 14.09 6.51 16.04 8.46C17.75 10.17 17.96 12.81 16.68 14.75L19.58 17.65C20.79 15.69 21.5 13.38 21.5 11V5Z" fill="white"/>
<path d="M12.5 15C14.1569 15 15.5 13.6569 15.5 12C15.5 10.3431 14.1569 9 12.5 9C10.8431 9 9.5 10.3431 9.5 12C9.5 13.6569 10.8431 15 12.5 15Z" fill="white"/>
</svg>
