<svg width="34" height="34" viewBox="0 0 34 34" fill="none" xmlns="http://www.w3.org/2000/svg">
<rect x="0.5" y="0.5" width="33" height="33" rx="16.5" fill="#B3C4DB"/>
<rect x="0.5" y="0.5" width="33" height="33" rx="16.5" stroke="white"/>
<path fill-rule="evenodd" clip-rule="evenodd" d="M20.3539 15.8975L18.105 13.6485L19.7306 12.0221L21.9787 14.2702L20.3539 15.8975ZM23.1787 13.1094L20.893 10.8237C20.2747 10.207 19.2124 10.1778 18.6265 10.7661L11.1194 18.2733C10.8474 18.5445 10.6788 18.905 10.6437 19.2864L10.3275 22.7662C10.3058 23.0124 10.3934 23.2561 10.5686 23.4313C10.7264 23.589 10.9392 23.6758 11.1586 23.6758C11.1845 23.6758 11.2095 23.675 11.2346 23.6725L14.7144 23.3562C15.0966 23.3211 15.4563 23.1534 15.7275 22.8822L23.2355 15.3742C23.843 14.7651 23.8171 13.7486 23.1787 13.1094Z" fill="white"/>
</svg>
