<svg width="14" height="15" viewBox="0 0 14 15" fill="none" xmlns="http://www.w3.org/2000/svg">
<path d="M3.762 14.792C3.762 14.63 3.744 14.558 3.672 14.558L3.258 14.756C3.258 14.666 3.204 14.612 3.114 14.576L2.97 14.558C2.844 14.558 2.79 14.576 2.61 14.684C2.556 14.576 2.484 14.45 2.43 14.342C1.962 13.442 1.476 12.092 1.26 11.498C1.152 11.192 1.044 10.562 0.918 9.608C1.062 9.698 1.17 9.734 1.224 9.734C1.296 9.734 1.386 9.608 1.458 9.356C1.494 9.41 1.566 9.428 1.656 9.428C1.71 9.428 1.782 9.41 1.818 9.356L2.106 8.924L2.43 9.032H2.448C2.484 9.032 2.538 8.978 2.628 8.924C2.718 8.87 2.79 8.834 2.844 8.834L2.898 8.852C3.186 8.996 3.384 9.248 3.474 9.644C3.69 10.562 3.888 11.012 4.122 11.012C4.32 11.012 4.59 10.778 4.878 10.328C5.166 9.878 5.454 9.266 5.778 8.528C5.796 8.672 5.814 8.744 5.85 8.744C5.958 8.744 6.228 8.114 6.894 7.052C7.884 5.45 10.332 2.372 10.962 1.94C11.43 1.616 11.79 1.31 12.042 1.04C12.006 1.22 11.97 1.346 11.97 1.4C11.97 1.454 12.006 1.472 12.042 1.472L12.546 1.22V1.292C12.546 1.382 12.564 1.436 12.618 1.436C12.69 1.436 12.978 1.148 13.014 1.04L12.978 1.292L13.59 0.932L13.446 1.256C13.626 1.13 13.77 1.058 13.86 1.058C13.95 1.058 14.004 1.202 14.004 1.292C14.004 1.436 13.878 1.634 13.68 1.886C13.464 2.174 12.924 2.732 11.304 4.586C10.602 5.378 7.488 9.608 6.894 10.616L5.778 12.506C5.292 13.316 4.986 13.838 4.824 14.036C4.662 14.234 4.464 14.432 4.23 14.612L4.068 14.522L3.924 14.612L3.762 14.792Z" fill="white"/>
</svg>
