<svg width="20" height="21" viewBox="0 0 20 21" fill="none" xmlns="http://www.w3.org/2000/svg">
<g clip-path="url(#clip0_2063_7594)">
<path fill-rule="evenodd" clip-rule="evenodd" d="M9.12248 13.242L13.6439 8.72058C13.9088 8.45572 13.9088 8.0263 13.6439 7.76144C13.3791 7.49658 12.9496 7.49658 12.6848 7.76144L8.6429 11.8033L7.3139 10.4743C7.04904 10.2094 6.61962 10.2094 6.35475 10.4743C6.0899 10.7392 6.0899 11.1686 6.35475 11.4334L8.16333 13.242C8.25832 13.337 8.37448 13.3979 8.49662 13.4248C8.5929 13.446 8.69291 13.446 8.78919 13.4248C8.91133 13.3979 9.02749 13.337 9.12248 13.242Z" fill="#B3C4DB"/>
<path fill-rule="evenodd" clip-rule="evenodd" d="M4.53613 2.89702C3.53553 3.25044 2.74849 4.03749 2.39507 5.03808C2.16722 5.68315 2.24187 6.36122 2.11196 7.01927C2.08606 7.15045 2.03439 7.27518 1.95995 7.38624C1.58651 7.94342 1.05425 8.3701 0.759231 8.98734C0.30161 9.94478 0.30161 11.0578 0.759231 12.0153C1.05425 12.6325 1.5865 13.0592 1.95995 13.6164C2.03439 13.7274 2.08606 13.8522 2.11196 13.9833C2.24187 14.6414 2.16722 15.3195 2.39507 15.9645C2.74849 16.9651 3.53553 17.7522 4.53613 18.1056C5.1812 18.3334 5.85927 18.2588 6.51733 18.3887C6.64849 18.4146 6.77322 18.4663 6.88428 18.5407C7.44147 18.9141 7.86815 19.4464 8.48539 19.7414C9.44282 20.199 10.5559 20.199 11.5133 19.7414C12.1305 19.4464 12.5572 18.9141 13.1144 18.5407C13.2255 18.4663 13.3502 18.4146 13.4814 18.3887C14.1394 18.2588 14.8175 18.3334 15.4626 18.1056C16.4632 17.7522 17.2502 16.9651 17.6036 15.9645C17.8315 15.3195 17.7568 14.6414 17.8867 13.9833C17.9126 13.8522 17.9643 13.7274 18.0387 13.6164C18.4122 13.0592 18.9444 12.6325 19.2395 12.0153C19.6971 11.0578 19.6971 9.94478 19.2395 8.98734C18.9444 8.3701 18.4122 7.94342 18.0387 7.38623C17.9643 7.27518 17.9126 7.15045 17.8867 7.01928C17.7568 6.36122 17.8315 5.68315 17.6036 5.03808C17.2502 4.03749 16.4632 3.25044 15.4626 2.89702C14.8175 2.66918 14.1394 2.74383 13.4814 2.61391C13.3502 2.58801 13.2255 2.53635 13.1144 2.46191C12.5572 2.08846 12.1305 1.5562 11.5133 1.26118C10.5559 0.803564 9.44282 0.803564 8.48539 1.26118C7.86815 1.5562 7.44147 2.08846 6.88429 2.46191C6.77322 2.53635 6.64849 2.58801 6.51732 2.61391C5.85926 2.74383 5.18119 2.66918 4.53613 2.89702ZM3.57371 5.45439C3.80129 4.81006 4.30811 4.30324 4.95244 4.07566C5.53036 3.87153 6.16507 3.95758 6.75943 3.84024C7.05283 3.78231 7.33181 3.66675 7.58023 3.50025C8.08348 3.16295 8.47144 2.65329 9.02444 2.38898C9.64098 2.0943 10.3577 2.0943 10.9743 2.38898C11.5273 2.65329 11.9152 3.16295 12.4185 3.50025C12.6669 3.66675 12.9459 3.78231 13.2393 3.84024C13.8336 3.95758 14.4683 3.87153 15.0463 4.07566C15.6906 4.30324 16.1974 4.81006 16.425 5.45439C16.6291 6.03231 16.5431 6.66703 16.6604 7.26139C16.7183 7.55478 16.8339 7.83377 17.0004 8.08219C17.3377 8.58543 17.8474 8.9734 18.1117 9.52639C18.4064 10.1429 18.4064 10.8597 18.1117 11.4762C17.8474 12.0292 17.3377 12.4172 17.0004 12.9204C16.8339 13.1688 16.7183 13.4478 16.6604 13.7412C16.5431 14.3356 16.6291 14.9703 16.425 15.5482C16.1974 16.1925 15.6906 16.6994 15.0463 16.9269C14.4683 17.1311 13.8336 17.045 13.2393 17.1624C12.9459 17.2203 12.6669 17.3358 12.4185 17.5024C11.9152 17.8397 11.5273 18.3493 10.9743 18.6136C10.3577 18.9083 9.64098 18.9083 9.02444 18.6136C8.47145 18.3493 8.08348 17.8397 7.58023 17.5024C7.33181 17.3358 7.05283 17.2203 6.75943 17.1624C6.16507 17.045 5.53036 17.1311 4.95244 16.9269C4.30811 16.6994 3.80129 16.1925 3.57371 15.5482C3.36958 14.9703 3.45563 14.3356 3.33828 13.7412C3.28036 13.4478 3.1648 13.1688 2.9983 12.9204C2.661 12.4172 2.15134 12.0292 1.88703 11.4762C1.59234 10.8597 1.59234 10.1429 1.88703 9.52639C2.15134 8.9734 2.661 8.58543 2.9983 8.08219C3.1648 7.83377 3.28036 7.55478 3.33828 7.26138C3.45563 6.66703 3.36958 6.03231 3.57371 5.45439Z" fill="#B3C4DB"/>
</g>
<defs>
<clipPath id="clip0_2063_7594">
<rect width="20" height="20" fill="white" transform="translate(0 0.5)"/>
</clipPath>
</defs>
</svg>
