<svg width="32" height="32" viewBox="0 0 32 32" fill="none" xmlns="http://www.w3.org/2000/svg">
<path fill-rule="evenodd" clip-rule="evenodd" d="M2.66699 9.79841C2.66699 5.85963 5.86 2.66663 9.79878 2.66663H22.2019C26.1407 2.66663 29.3337 5.85963 29.3337 9.79841V22.2015C29.3337 26.1403 26.1407 29.3333 22.2019 29.3333H9.79878C5.86 29.3333 2.66699 26.1403 2.66699 22.2015V9.79841ZM17.3165 14.7595C17.3165 14.3742 17.0041 14.0618 16.6188 14.0618H14.1382C13.7529 14.0618 13.4405 14.3742 13.4405 14.7595C13.4405 15.1448 13.7529 15.4572 14.1382 15.4572H15.9211L15.9211 22.2014C15.9211 22.5867 16.2335 22.899 16.6188 22.899C17.0041 22.899 17.3165 22.5867 17.3165 22.2014V14.7595ZM17.3166 9.79857C17.3166 9.41325 17.0043 9.1009 16.619 9.1009C16.2337 9.1009 15.9213 9.41325 15.9213 9.79857V11.0389C15.9213 11.4242 16.2337 11.7366 16.619 11.7366C17.0043 11.7366 17.3166 11.4242 17.3166 11.0389V9.79857Z" fill="#2C4157"/>
</svg>
