<svg width="20" height="20" viewBox="0 0 20 20" fill="none" xmlns="http://www.w3.org/2000/svg">
<path d="M11.7628 9.99999L8.08312 13.9346C7.74833 14.2927 7.74833 14.8731 8.08312 15.2313C8.23736 15.3971 8.43625 15.4859 8.63869 15.4985C8.65534 15.4995 8.67201 15.5 8.68868 15.5C8.90817 15.5 9.12746 15.4107 9.29548 15.2299L13.5807 10.6475C13.9155 10.2895 13.9155 9.7091 13.5807 9.3511L9.29548 4.76867C9.14054 4.60288 8.94104 4.51382 8.73821 4.50149C8.50286 4.48724 8.26303 4.5763 8.08312 4.76868C7.74834 5.12668 7.74834 5.7071 8.08312 6.0651L11.7628 9.99999Z" fill="#A4A9B0"/>
</svg>
