<svg width="20" height="20" viewBox="0 0 20 20" fill="none" xmlns="http://www.w3.org/2000/svg">
<path opacity="0.4" fill-rule="evenodd" clip-rule="evenodd" d="M1.66602 6.12387C1.66602 3.66213 3.66165 1.6665 6.12338 1.6665H13.8753C16.3371 1.6665 18.3327 3.66213 18.3327 6.12387V13.8758C18.3327 16.3375 16.3371 18.3332 13.8753 18.3332H6.12338C3.66165 18.3332 1.66602 16.3375 1.66602 13.8758V6.12387ZM10.968 9.22461C10.968 8.90351 10.7077 8.64321 10.3866 8.64321H8.83617C8.51507 8.64321 8.25477 8.90351 8.25477 9.22461C8.25477 9.5457 8.51507 9.806 8.83617 9.806H9.80516V13.8758C9.80516 14.1969 10.0655 14.4572 10.3866 14.4572C10.7077 14.4572 10.968 14.1969 10.968 13.8758L10.968 9.22461ZM10.968 6.12402C10.968 5.80293 10.7077 5.54263 10.3866 5.54263C10.0655 5.54263 9.80516 5.80293 9.80516 6.12402V6.89922C9.80516 7.22031 10.0655 7.48061 10.3866 7.48061C10.7077 7.48061 10.968 7.22031 10.968 6.89922V6.12402Z" fill="#2C4157"/>
</svg>
