<svg width="40" height="40" viewBox="0 0 40 40" fill="none" xmlns="http://www.w3.org/2000/svg">
<path d="M14.3519 14.3519C14.6808 14.023 15.214 14.023 15.5428 14.3519L20 18.8091L24.4572 14.3519C24.786 14.023 25.3192 14.023 25.6481 14.3519C25.977 14.6808 25.977 15.214 25.6481 15.5428L21.1909 20L25.6481 24.4572C25.977 24.786 25.977 25.3192 25.6481 25.6481C25.3192 25.977 24.786 25.977 24.4572 25.6481L20 21.1909L15.5428 25.6481C15.214 25.977 14.6808 25.977 14.3519 25.6481C14.023 25.3192 14.023 24.786 14.3519 24.4572L18.8091 20L14.3519 15.5428C14.023 15.214 14.023 14.6808 14.3519 14.3519Z" fill="#A4A9B0"/>
<path fill-rule="evenodd" clip-rule="evenodd" d="M4 20C4 11.1665 11.1665 4 20 4C28.8335 4 36 11.1665 36 20C36 28.8335 28.8335 36 20 36C11.1665 36 4 28.8335 4 20ZM20 5.68421C12.0967 5.68421 5.68421 12.0967 5.68421 20C5.68421 27.9033 12.0967 34.3158 20 34.3158C27.9033 34.3158 34.3158 27.9033 34.3158 20C34.3158 12.0967 27.9033 5.68421 20 5.68421Z" fill="#A4A9B0"/>
</svg>
