<svg width="27" height="27" viewBox="0 0 27 27" fill="none" xmlns="http://www.w3.org/2000/svg">
<path fill-rule="evenodd" clip-rule="evenodd" d="M13.75 2C13.5179 2.00012 13.2905 2.06485 13.0931 2.18694C12.8957 2.30903 12.7362 2.48365 12.6325 2.69125L11.7275 4.5H7.5C7.16848 4.5 6.85054 4.6317 6.61612 4.86612C6.3817 5.10054 6.25 5.41848 6.25 5.75C6.25 6.08152 6.3817 6.39946 6.61612 6.63388C6.85054 6.8683 7.16848 7 7.5 7V19.5C7.5 20.163 7.76339 20.7989 8.23223 21.2678C8.70107 21.7366 9.33696 22 10 22H20C20.663 22 21.2989 21.7366 21.7678 21.2678C22.2366 20.7989 22.5 20.163 22.5 19.5V7C22.8315 7 23.1495 6.8683 23.3839 6.63388C23.6183 6.39946 23.75 6.08152 23.75 5.75C23.75 5.41848 23.6183 5.10054 23.3839 4.86612C23.1495 4.6317 22.8315 4.5 22.5 4.5H18.2725L17.3675 2.69125C17.2638 2.48365 17.1043 2.30903 16.9069 2.18694C16.7095 2.06485 16.4821 2.00012 16.25 2H13.75ZM11.25 9.5C11.25 9.16848 11.3817 8.85054 11.6161 8.61612C11.8505 8.3817 12.1685 8.25 12.5 8.25C12.8315 8.25 13.1495 8.3817 13.3839 8.61612C13.6183 8.85054 13.75 9.16848 13.75 9.5V17C13.75 17.3315 13.6183 17.6495 13.3839 17.8839C13.1495 18.1183 12.8315 18.25 12.5 18.25C12.1685 18.25 11.8505 18.1183 11.6161 17.8839C11.3817 17.6495 11.25 17.3315 11.25 17V9.5ZM17.5 8.25C17.1685 8.25 16.8505 8.3817 16.6161 8.61612C16.3817 8.85054 16.25 9.16848 16.25 9.5V17C16.25 17.3315 16.3817 17.6495 16.6161 17.8839C16.8505 18.1183 17.1685 18.25 17.5 18.25C17.8315 18.25 18.1495 18.1183 18.3839 17.8839C18.6183 17.6495 18.75 17.3315 18.75 17V9.5C18.75 9.16848 18.6183 8.85054 18.3839 8.61612C18.1495 8.3817 17.8315 8.25 17.5 8.25Z" fill="#A4A9B0"/>
</svg>
