<svg width="20" height="20" viewBox="0 0 20 20" fill="none" xmlns="http://www.w3.org/2000/svg">
<path fill-rule="evenodd" clip-rule="evenodd" d="M9.16669 3.3335C9.01197 3.33358 8.86033 3.37673 8.72875 3.45812C8.59717 3.53951 8.49085 3.65593 8.42169 3.79433L7.81835 5.00016H5.00002C4.77901 5.00016 4.56704 5.08796 4.41076 5.24424C4.25448 5.40052 4.16669 5.61248 4.16669 5.8335C4.16669 6.05451 4.25448 6.26647 4.41076 6.42275C4.56704 6.57903 4.77901 6.66683 5.00002 6.66683V15.0002C5.00002 15.4422 5.17562 15.8661 5.48818 16.1787C5.80074 16.4912 6.22466 16.6668 6.66669 16.6668H13.3334C13.7754 16.6668 14.1993 16.4912 14.5119 16.1787C14.8244 15.8661 15 15.4422 15 15.0002V6.66683C15.221 6.66683 15.433 6.57903 15.5893 6.42275C15.7456 6.26647 15.8334 6.05451 15.8334 5.8335C15.8334 5.61248 15.7456 5.40052 15.5893 5.24424C15.433 5.08796 15.221 5.00016 15 5.00016H12.1817L11.5784 3.79433C11.5092 3.65593 11.4029 3.53951 11.2713 3.45812C11.1397 3.37673 10.9881 3.33358 10.8334 3.3335H9.16669ZM7.50002 8.3335C7.50002 8.11248 7.58782 7.90052 7.7441 7.74424C7.90038 7.58796 8.11234 7.50016 8.33335 7.50016C8.55437 7.50016 8.76633 7.58796 8.92261 7.74424C9.07889 7.90052 9.16669 8.11248 9.16669 8.3335V13.3335C9.16669 13.5545 9.07889 13.7665 8.92261 13.9228C8.76633 14.079 8.55437 14.1668 8.33335 14.1668C8.11234 14.1668 7.90038 14.079 7.7441 13.9228C7.58782 13.7665 7.50002 13.5545 7.50002 13.3335V8.3335ZM11.6667 7.50016C11.4457 7.50016 11.2337 7.58796 11.0774 7.74424C10.9212 7.90052 10.8334 8.11248 10.8334 8.3335V13.3335C10.8334 13.5545 10.9212 13.7665 11.0774 13.9228C11.2337 14.079 11.4457 14.1668 11.6667 14.1668C11.8877 14.1668 12.0997 14.079 12.2559 13.9228C12.4122 13.7665 12.5 13.5545 12.5 13.3335V8.3335C12.5 8.11248 12.4122 7.90052 12.2559 7.74424C12.0997 7.58796 11.8877 7.50016 11.6667 7.50016Z" fill="#D60000"/>
</svg>
