<svg width="40" height="40" viewBox="0 0 40 40" fill="none" xmlns="http://www.w3.org/2000/svg">
<path fill-rule="evenodd" clip-rule="evenodd" d="M28.2977 17.8202C28.2977 20.8507 27.079 23.7571 24.9097 25.9C22.7405 28.0429 19.7983 29.2468 16.7305 29.2468C13.6627 29.2468 10.7205 28.0429 8.55126 25.9C6.38199 23.7571 5.16331 20.8507 5.16331 17.8202C5.16331 14.7897 6.38199 11.8833 8.55126 9.74039C10.7205 7.59749 13.6627 6.39362 16.7305 6.39362C19.7983 6.39362 22.7405 7.59749 24.9097 9.74039C27.079 11.8833 28.2977 14.7897 28.2977 17.8202ZM26.8794 27.6822C24.311 30.2582 20.837 31.758 17.1787 31.8703C13.5204 31.9825 9.95885 30.6987 7.23355 28.2852C4.50826 25.8718 2.8286 22.5142 2.54334 18.9096C2.25807 15.3051 3.38911 11.7304 5.70163 8.92793C8.01414 6.12543 11.3304 4.31042 14.962 3.85973C18.5935 3.40905 22.2612 4.35732 25.2036 6.50765C28.146 8.65799 30.137 11.8452 30.7632 15.4075C31.3894 18.9697 30.6027 22.6334 28.5664 25.6378L37.0212 32.6549C37.589 33.1262 37.6624 33.9713 37.1844 34.5337C36.715 35.0858 35.8896 35.1578 35.3319 34.6952L26.8794 27.6822Z" fill="#A4A9B0"/>
</svg>
