<svg width="16" height="16" viewBox="0 0 16 16" fill="none" xmlns="http://www.w3.org/2000/svg">
<path d="M13.804 12.8622C14.0646 13.1228 14.0646 13.5442 13.804 13.8048C13.674 13.9348 13.5033 14.0002 13.3326 14.0002C13.162 14.0002 12.9913 13.9348 12.8613 13.8048L8.0551 8.99863C8.03663 8.99965 8.01803 9.00017 7.99931 9.00017C7.44798 9.00017 6.99931 8.5515 6.99931 8.00017C6.99931 7.98145 6.99983 7.96284 7.00085 7.94437L2.19464 3.13817C1.93397 2.8775 1.93397 2.45617 2.19464 2.1955C2.45531 1.93483 2.87664 1.93483 3.13731 2.1955L7.94351 7.00171C7.96198 7.00068 7.98059 7.00017 7.99931 7.00017C8.55064 7.00017 8.99931 7.44883 8.99931 8.00017C8.99931 8.01889 8.99879 8.03749 8.99777 8.05596L13.804 12.8622Z" fill="#B3C4DB"/>
<path d="M5.72784 3.84297L7.59251 5.70763C7.72518 5.6843 7.85984 5.66697 7.99918 5.66697C9.28584 5.66697 10.3325 6.71363 10.3325 8.0003C10.3325 8.13963 10.3152 8.2743 10.2918 8.40697L12.6358 10.7516C13.6505 9.8263 14.3012 8.81363 14.5778 8.33163C14.6952 8.1263 14.6952 7.87363 14.5778 7.6683C14.1525 6.92697 11.8032 3.21097 7.81918 3.33563C7.02984 3.3563 6.31518 3.5263 5.66718 3.78297L5.72784 3.84297Z" fill="#B3C4DB"/>
<path d="M9.29798 11.1849L10.3313 12.2176C9.68331 12.4742 8.96931 12.6442 8.17998 12.6642C8.12531 12.6662 8.06997 12.6669 8.01597 12.6669C4.10731 12.6669 1.84064 9.06357 1.42064 8.33157C1.30331 8.12623 1.30331 7.87357 1.42064 7.66823C1.69731 7.1869 2.34798 6.17423 3.36264 5.2489L5.70731 7.59357C5.68331 7.72623 5.66598 7.8609 5.66598 8.00023C5.66598 9.2869 6.71264 10.3336 7.99931 10.3336C8.13864 10.3336 8.27331 10.3162 8.40597 10.2922L9.25198 11.1382L9.29798 11.1849Z" fill="#B3C4DB"/>
</svg>
