<svg width="16" height="16" viewBox="0 0 16 16" fill="none" xmlns="http://www.w3.org/2000/svg">
<path d="M13.7143 6.57135H9.42861V2.28563C9.42861 1.75974 9.00212 1.33325 8.47623 1.33325H7.52385C6.99796 1.33325 6.57147 1.75974 6.57147 2.28563V6.57135H2.28576C1.75986 6.57135 1.33337 6.99784 1.33337 7.52373V8.47611C1.33337 9.002 1.75986 9.42849 2.28576 9.42849H6.57147V13.7142C6.57147 14.2401 6.99796 14.6666 7.52385 14.6666H8.47623C9.00212 14.6666 9.42861 14.2401 9.42861 13.7142V9.42849H13.7143C14.2402 9.42849 14.6667 9.002 14.6667 8.47611V7.52373C14.6667 6.99784 14.2402 6.57135 13.7143 6.57135Z" fill="#B3C4DB"/>
</svg>
