<svg width="40" height="40" viewBox="0 0 40 40" fill="none" xmlns="http://www.w3.org/2000/svg">
<path d="M31.1111 0H8.88889C3.98 0 0 3.98 0 8.88889V31.1111C0 36.02 3.98 40 8.88889 40H21.38V24.5311H16.1733V18.4756H21.38V14.02C21.38 8.85556 24.5378 6.04 29.1467 6.04C30.7 6.03556 32.2511 6.11556 33.7956 6.27333V11.6733H30.6222C28.1111 11.6733 27.6222 12.86 27.6222 14.6111V18.4667H33.6222L32.8422 24.5222H27.5867V40H31.1111C36.02 40 40 36.02 40 31.1111V8.88889C40 3.98 36.02 0 31.1111 0Z" fill="#365F99"/>
</svg>
