<svg width="40" height="40" viewBox="0 0 40 40" fill="none" xmlns="http://www.w3.org/2000/svg">
<g clip-path="url(#clip0_30_7315)">
<g clip-path="url(#clip1_30_7315)">
<path d="M20 40C31.0457 40 40 31.0457 40 20C40 8.9543 31.0457 0 20 0C8.95431 0 0 8.9543 0 20C0 31.0457 8.95431 40 20 40Z" fill="#1D1D1D" stroke="white" stroke-width="0.0415515" stroke-miterlimit="10"/>
<path d="M7.68134 8.41406L17.2411 21.1961L7.62109 31.5886H9.78634L18.2088 22.4896L25.0137 31.5886H32.3817L22.2838 18.0877L31.2382 8.41406H29.0729L21.3165 16.7938L15.0493 8.41406H7.68134ZM10.8654 10.0088H14.2502L29.1971 29.9939H25.8124L10.8654 10.0088Z" fill="white"/>
</g>
</g>
<defs>
<clipPath id="clip0_30_7315">
<rect width="40" height="40" fill="white"/>
</clipPath>
<clipPath id="clip1_30_7315">
<rect width="40" height="40" fill="white"/>
</clipPath>
</defs>
</svg>
