<svg width="228" height="128" viewBox="0 0 228 128" fill="none" xmlns="http://www.w3.org/2000/svg">
<rect width="228" height="128" fill="#F0F5FC"/>
<path d="M79.7277 69.72H105.776V75.416H79.7277V69.72ZM77.0398 87H70.0637L88.8158 42.2H96.7518L115.504 87H108.592L92.8477 48.536L77.0398 87ZM140.037 67.608C129.711 65.56 124.549 61.0587 124.549 54.104C124.549 50.4347 125.935 47.4053 128.709 45.016C131.482 42.584 135.023 41.368 139.333 41.368C143.045 41.368 146.415 42.3707 149.445 44.376C152.517 46.3813 154.714 49.0693 156.037 52.44L150.341 54.68C149.359 52.376 147.909 50.5627 145.989 49.24C144.069 47.9173 141.893 47.256 139.461 47.256C136.943 47.256 134.874 47.896 133.253 49.176C131.631 50.4133 130.821 52.0347 130.821 54.04C130.821 55.8747 131.631 57.368 133.253 58.52C134.874 59.672 137.477 60.6107 141.061 61.336C146.095 62.36 149.935 64.0453 152.581 66.392C155.226 68.7387 156.549 71.5973 156.549 74.968C156.549 78.6373 155.098 81.688 152.197 84.12C149.295 86.5093 145.626 87.704 141.189 87.704C137.349 87.704 133.85 86.7013 130.693 84.696C127.578 82.648 125.338 79.9387 123.973 76.568L129.797 73.752C130.778 76.2693 132.271 78.2533 134.277 79.704C136.282 81.112 138.522 81.816 140.997 81.816C143.685 81.816 145.903 81.1547 147.653 79.832C149.402 78.5093 150.277 76.8453 150.277 74.84C150.277 73.048 149.445 71.576 147.781 70.424C146.117 69.2293 143.535 68.2907 140.037 67.608Z" fill="#B3C4DB"/>
</svg>
