<svg width="64" height="64" viewBox="0 0 64 64" fill="none" xmlns="http://www.w3.org/2000/svg">
<mask id="path-1-inside-1_7009_8658" fill="white">
<path d="M31.2242 0.0221558C14.0534 0.0221558 0.00463867 14.0709 0.00463867 31.2417C0.00463867 48.4124 14.0534 62.4612 31.2242 62.4612C48.3949 62.4612 62.4437 48.4124 62.4437 31.2417C62.4437 14.0709 48.3949 0.0221558 31.2242 0.0221558ZM31.2242 56.2173C17.4876 56.2173 6.24854 44.9783 6.24854 31.2417C6.24854 17.5051 17.4876 6.26606 31.2242 6.26606C44.9607 6.26606 56.1998 17.5051 56.1998 31.2417C56.1998 44.9783 44.9607 56.2173 31.2242 56.2173Z"/>
<path d="M48.3955 41.8563C46.2101 39.6709 43.7126 38.11 40.9028 36.8612C43.0882 34.3636 44.6492 31.2417 44.6492 27.4953C44.6492 20.0026 38.7174 14.0709 31.2248 14.0709C23.7321 14.0709 17.8004 20.0026 17.8004 27.4953C17.8004 31.2417 19.3613 34.3636 21.5467 36.8612C18.737 38.11 16.2394 39.6709 14.054 41.8563C12.8053 43.1051 12.8053 44.9783 14.054 46.227C14.6784 46.8514 15.615 47.1636 16.2394 47.1636C17.176 47.1636 17.8004 46.8514 18.4248 46.227C21.8589 42.7929 26.2296 40.9197 31.2248 40.9197C35.9077 40.9197 40.5906 42.7929 44.0248 46.227C45.2735 47.4758 47.1467 47.4758 48.3955 46.227C49.6443 44.9783 49.6443 43.1051 48.3955 41.8563ZM24.0443 27.4953C24.0443 23.4368 27.1662 20.3148 31.2248 20.3148C35.2833 20.3148 38.4053 23.4368 38.4053 27.4953C38.4053 31.5539 35.2833 34.6758 31.2248 34.6758C27.1662 34.6758 24.0443 31.5539 24.0443 27.4953Z"/>
</mask>
<path d="M31.2242 0.0221558C14.0534 0.0221558 0.00463867 14.0709 0.00463867 31.2417C0.00463867 48.4124 14.0534 62.4612 31.2242 62.4612C48.3949 62.4612 62.4437 48.4124 62.4437 31.2417C62.4437 14.0709 48.3949 0.0221558 31.2242 0.0221558ZM31.2242 56.2173C17.4876 56.2173 6.24854 44.9783 6.24854 31.2417C6.24854 17.5051 17.4876 6.26606 31.2242 6.26606C44.9607 6.26606 56.1998 17.5051 56.1998 31.2417C56.1998 44.9783 44.9607 56.2173 31.2242 56.2173Z" fill="#B3C4DB"/>
<path d="M48.3955 41.8563C46.2101 39.6709 43.7126 38.11 40.9028 36.8612C43.0882 34.3636 44.6492 31.2417 44.6492 27.4953C44.6492 20.0026 38.7174 14.0709 31.2248 14.0709C23.7321 14.0709 17.8004 20.0026 17.8004 27.4953C17.8004 31.2417 19.3613 34.3636 21.5467 36.8612C18.737 38.11 16.2394 39.6709 14.054 41.8563C12.8053 43.1051 12.8053 44.9783 14.054 46.227C14.6784 46.8514 15.615 47.1636 16.2394 47.1636C17.176 47.1636 17.8004 46.8514 18.4248 46.227C21.8589 42.7929 26.2296 40.9197 31.2248 40.9197C35.9077 40.9197 40.5906 42.7929 44.0248 46.227C45.2735 47.4758 47.1467 47.4758 48.3955 46.227C49.6443 44.9783 49.6443 43.1051 48.3955 41.8563ZM24.0443 27.4953C24.0443 23.4368 27.1662 20.3148 31.2248 20.3148C35.2833 20.3148 38.4053 23.4368 38.4053 27.4953C38.4053 31.5539 35.2833 34.6758 31.2248 34.6758C27.1662 34.6758 24.0443 31.5539 24.0443 27.4953Z" fill="#B3C4DB"/>
<path d="M40.9028 36.8612L39.2471 35.4125L37.2813 37.6591L40.0093 38.8716L40.9028 36.8612ZM21.5467 36.8612L22.4402 38.8716L25.1682 37.6591L23.2024 35.4125L21.5467 36.8612ZM14.054 41.8563L15.6097 43.4119H15.6097L14.054 41.8563ZM14.054 46.227L15.6097 44.6714L14.054 46.227ZM18.4248 46.227L19.9804 47.7827L18.4248 46.227ZM31.2242 -2.17784C12.8384 -2.17784 -2.19536 12.8559 -2.19536 31.2417H2.20464C2.20464 15.286 15.2684 2.22216 31.2242 2.22216V-2.17784ZM-2.19536 31.2417C-2.19536 49.6274 12.8384 64.6612 31.2242 64.6612V60.2612C15.2684 60.2612 2.20464 47.1974 2.20464 31.2417H-2.19536ZM31.2242 64.6612C49.6099 64.6612 64.6437 49.6274 64.6437 31.2417H60.2437C60.2437 47.1974 47.1799 60.2612 31.2242 60.2612V64.6612ZM64.6437 31.2417C64.6437 12.8559 49.6099 -2.17784 31.2242 -2.17784V2.22216C47.1799 2.22216 60.2437 15.286 60.2437 31.2417H64.6437ZM31.2242 54.0173C18.7026 54.0173 8.44854 43.7632 8.44854 31.2417H4.04854C4.04854 46.1933 16.2725 58.4173 31.2242 58.4173V54.0173ZM8.44854 31.2417C8.44854 18.7201 18.7026 8.46606 31.2242 8.46606V4.06606C16.2725 4.06606 4.04854 16.2901 4.04854 31.2417H8.44854ZM31.2242 8.46606C43.7457 8.46606 53.9998 18.7201 53.9998 31.2417H58.3998C58.3998 16.2901 46.1758 4.06606 31.2242 4.06606V8.46606ZM53.9998 31.2417C53.9998 43.7632 43.7457 54.0173 31.2242 54.0173V58.4173C46.1758 58.4173 58.3998 46.1933 58.3998 31.2417H53.9998ZM49.9511 40.3007C47.5329 37.8825 44.7922 36.1823 41.7963 34.8508L40.0093 38.8716C42.633 40.0376 44.8873 41.4594 46.8399 43.4119L49.9511 40.3007ZM42.5585 38.3099C45.0022 35.517 46.8492 31.9 46.8492 27.4953H42.4492C42.4492 30.5833 41.1741 33.2102 39.2471 35.4125L42.5585 38.3099ZM46.8492 27.4953C46.8492 18.7876 39.9325 11.8709 31.2248 11.8709V16.2709C37.5024 16.2709 42.4492 21.2177 42.4492 27.4953H46.8492ZM31.2248 11.8709C22.5171 11.8709 15.6004 18.7876 15.6004 27.4953H20.0004C20.0004 21.2177 24.9471 16.2709 31.2248 16.2709V11.8709ZM15.6004 27.4953C15.6004 31.9 17.4473 35.517 19.891 38.3099L23.2024 35.4125C21.2754 33.2102 20.0004 30.5833 20.0004 27.4953H15.6004ZM20.6532 34.8508C17.6574 36.1823 14.9166 37.8825 12.4984 40.3007L15.6097 43.4119C17.5622 41.4594 19.8166 40.0376 22.4402 38.8716L20.6532 34.8508ZM12.4984 40.3007C10.3905 42.4086 10.3905 45.6747 12.4984 47.7827L15.6097 44.6714C15.22 44.2818 15.22 43.8016 15.6097 43.4119L12.4984 40.3007ZM12.4984 47.7827C13.5623 48.8466 15.0708 49.3636 16.2394 49.3636V44.9636C16.2595 44.9636 16.2373 44.9653 16.1756 44.9523C16.1171 44.94 16.0436 44.9188 15.9638 44.8868C15.793 44.8185 15.6716 44.7333 15.6097 44.6714L12.4984 47.7827ZM16.2394 49.3636C16.9644 49.3636 17.6669 49.2402 18.3427 48.9399C19.0088 48.6438 19.5383 48.2247 19.9804 47.7827L16.8691 44.6714C16.6868 44.8537 16.5919 44.903 16.5556 44.9191C16.5289 44.931 16.451 44.9636 16.2394 44.9636V49.3636ZM19.9804 47.7827C23.0096 44.7535 26.8238 43.1197 31.2248 43.1197V38.7197C25.6355 38.7197 20.7082 40.8323 16.8691 44.6714L19.9804 47.7827ZM31.2248 43.1197C35.3337 43.1197 39.4543 44.7678 42.4691 47.7827L45.5804 44.6714C41.727 40.818 36.4816 38.7197 31.2248 38.7197V43.1197ZM42.4691 47.7827C44.5771 49.8906 47.8432 49.8906 49.9511 47.7827L46.8399 44.6714C46.4502 45.061 45.97 45.061 45.5804 44.6714L42.4691 47.7827ZM49.9511 47.7827C52.0591 45.6747 52.0591 42.4086 49.9511 40.3007L46.8399 43.4119C47.2295 43.8016 47.2295 44.2818 46.8399 44.6714L49.9511 47.7827ZM26.2443 27.4953C26.2443 24.6518 28.3813 22.5148 31.2248 22.5148V18.1148C25.9512 18.1148 21.8443 22.2218 21.8443 27.4953H26.2443ZM31.2248 22.5148C34.0683 22.5148 36.2053 24.6518 36.2053 27.4953H40.6053C40.6053 22.2218 36.4983 18.1148 31.2248 18.1148V22.5148ZM36.2053 27.4953C36.2053 30.3388 34.0683 32.4758 31.2248 32.4758V36.8758C36.4983 36.8758 40.6053 32.7689 40.6053 27.4953H36.2053ZM31.2248 32.4758C28.3813 32.4758 26.2443 30.3388 26.2443 27.4953H21.8443C21.8443 32.7689 25.9512 36.8758 31.2248 36.8758V32.4758Z" fill="#F0F5FC" mask="url(#path-1-inside-1_7009_8658)"/>
</svg>
