<svg width="45" height="70" viewBox="0 0 45 70" fill="none" xmlns="http://www.w3.org/2000/svg">
<g style='transform: translateX(-60px)'>
<g clip-path="url(#clip0_2035_2726)">
<path fill-rule="evenodd" clip-rule="evenodd" d="M75.3321 65.9661C75.3151 61.0901 75.2895 54.002 75.2731 49.126C75.261 45.5139 75.251 41.9016 75.2389 38.2895C75.2232 33.607 75.2063 28.9238 75.1895 24.2415C75.1834 22.5426 75.1765 20.8435 75.1703 19.1446C75.17 19.0754 75.1696 19.0063 75.1703 18.9374C75.1709 18.8737 75.1886 18.8582 75.2597 18.8564C75.2873 18.8558 75.315 18.856 75.3426 18.8558C77.4219 18.8458 79.5014 18.8359 81.5806 18.8262C81.6359 18.826 81.691 18.8275 81.7463 18.8292C81.7722 18.8301 81.7968 18.8558 81.7981 18.8832C81.8001 18.9245 81.8016 18.9659 81.8018 19.0072C81.8037 19.6633 81.805 20.3195 81.8072 20.9757C81.8245 25.9484 81.8424 30.9212 81.8593 35.8938C81.8713 39.499 81.8813 43.1044 81.8934 46.7096C81.9085 51.2748 81.9245 59.9328 81.9409 64.498H84.4828C84.4778 60.0432 84.472 54.7661 84.4681 50.3113C84.4638 45.3039 84.4605 40.2966 84.4577 35.2893C84.4547 29.9504 84.453 24.6115 84.4508 19.2728C84.4508 19.1899 84.4504 19.1072 84.4515 19.0242C84.4521 18.9608 84.4698 18.9454 84.5415 18.9441C84.5761 18.9435 84.6107 18.9439 84.6452 18.9439C86.7176 18.9426 88.7901 18.9415 90.8625 18.9407C90.9245 18.9407 90.9867 18.943 91.0485 18.9476C91.0588 18.9482 91.0752 18.964 91.0767 18.9746C91.0817 19.0085 91.0821 19.0433 91.0821 19.0776C91.0826 19.4504 91.0828 19.8238 91.083 20.1964C91.0867 27.6348 91.0888 35.0733 91.0945 42.5117C91.0996 49.5979 91.1085 58.8951 91.1158 65.9813L75.3321 65.9661ZM78.0031 31.664H78.0091C78.0108 31.9454 78.0124 32.2268 78.014 32.5082C78.0148 32.6359 78.0155 32.7646 78.0162 32.8923C78.0208 33.7118 78.0254 34.5312 78.0312 35.3506C78.035 35.8926 78.0398 36.4346 78.0446 36.9765C78.0494 37.5185 78.0542 38.0604 78.058 38.6024C78.062 39.1856 78.065 39.7689 78.0679 40.3522C78.0706 40.8667 78.0732 41.3812 78.0765 41.8957C78.079 42.2819 78.083 42.6681 78.0871 43.0541C78.0889 43.2342 78.0908 43.4142 78.0925 43.5942L78.0927 43.6167L78.0927 43.6181C78.0931 43.6653 78.0935 43.7126 78.0929 43.7599C78.0925 43.796 78.0655 43.8221 78.0253 43.8225C77.7839 43.8251 77.5422 43.8268 77.3005 43.8281C77.2655 43.8284 77.242 43.8001 77.2409 43.7595C77.2398 43.7182 77.2396 43.6768 77.2395 43.6353C77.2395 43.6318 77.2394 43.6283 77.2394 43.6247L77.2394 43.6236C77.2394 43.6206 77.2394 43.6176 77.2394 43.6145C77.2379 43.359 77.2366 43.1034 77.2353 42.8478C77.2327 42.337 77.23 41.8261 77.2264 41.3154C77.2181 40.1307 77.2096 38.946 77.2011 37.7612C77.1954 36.9714 77.1897 36.1815 77.1841 35.3916C77.1796 34.7623 77.1752 34.1329 77.1708 33.5035C77.1636 32.4551 77.1563 31.4068 77.1482 30.3584C77.1446 29.8919 77.1399 29.4255 77.1351 28.959C77.1299 28.4519 77.1247 27.9449 77.121 27.4379C77.1167 26.8505 77.1137 26.263 77.1107 25.6756C77.1082 25.1721 77.1056 24.6687 77.1022 24.1653C77.0961 23.2688 77.0893 22.3723 77.0826 21.4758C77.0784 20.9155 77.0741 20.3552 77.0701 19.7949C77.0681 19.5355 77.0696 19.5232 77.0955 19.5147C77.157 19.4946 77.22 19.4965 77.283 19.4983C77.3093 19.499 77.3355 19.4998 77.3616 19.499C77.4985 19.4945 77.6356 19.4933 77.7724 19.4921C77.7805 19.492 77.7886 19.4919 77.7966 19.4919C77.8236 19.4916 77.8513 19.4944 77.8774 19.5007C77.8882 19.5033 77.9029 19.5176 77.9042 19.5279C77.9104 19.5754 77.915 19.6234 77.9154 19.6713C77.9205 20.3588 77.9255 21.0462 77.9304 21.7337C77.9373 22.6963 77.9443 23.659 77.9517 24.6217C77.9547 25.007 77.9587 25.3923 77.9626 25.7777C77.9671 26.2209 77.9717 26.664 77.9748 27.1072C77.9797 27.8107 77.9833 28.514 77.9868 29.2175C77.989 29.6394 77.9912 30.0614 77.9936 30.4834C77.9953 30.7588 77.9977 31.0341 78.0001 31.3095C78.0011 31.4276 78.0021 31.5458 78.0031 31.664ZM85.1718 43.9301C85.1481 43.9302 85.1244 43.9279 85.1027 43.9257C85.0939 43.9249 85.0854 43.924 85.0774 43.9234C85.0497 43.8822 85.0509 43.8423 85.0521 43.8038C85.0524 43.794 85.0527 43.7844 85.0526 43.7748L85.0525 43.7732C85.0471 43.2834 85.0418 42.7937 85.0387 42.3039C85.0354 41.7547 85.0325 41.2054 85.0297 40.6561L85.0297 40.6539C85.0292 40.5664 85.0288 40.4785 85.0283 40.391C85.0251 39.7787 85.0218 39.1663 85.0178 38.5541C85.0091 37.2705 84.9997 35.987 84.9903 34.7035L84.9903 34.7023L84.9903 34.7011L84.9903 34.6999C84.9856 34.0579 84.9809 33.4159 84.9763 32.7739C84.9627 30.8679 84.9489 28.962 84.9351 27.056C84.9323 26.677 84.9296 26.298 84.9269 25.919C84.9158 24.3782 84.9048 22.8375 84.8932 21.2966C84.8907 20.9696 84.8868 20.6421 84.8829 20.3151C84.8807 20.1312 84.8785 19.9474 84.8765 19.7636C84.8761 19.7223 84.877 19.6808 84.8811 19.6398C84.8821 19.6288 84.8962 19.6165 84.9074 19.6102C84.9186 19.6037 84.9338 19.6014 84.9474 19.6014C85.1821 19.5994 85.4171 19.5977 85.6519 19.5972C85.7145 19.597 85.7314 19.6173 85.7329 19.6877C85.7337 19.7239 85.7338 19.7602 85.7339 19.7964C85.7339 19.8035 85.7339 19.8106 85.7339 19.8177L85.7339 19.8232C85.734 19.8264 85.734 19.8295 85.734 19.8327C85.7359 20.1881 85.7377 20.5436 85.7395 20.899C85.7428 21.5585 85.7461 22.2188 85.7506 22.8782C85.7595 24.1864 85.7691 25.4947 85.7786 26.8029L85.7786 26.8045L85.7786 26.8061L85.7786 26.8076C85.7833 27.4591 85.7881 28.1105 85.7927 28.7618C85.7967 29.3189 85.8005 29.8759 85.8044 30.433C85.812 31.5471 85.8197 32.6612 85.8284 33.7754C85.832 34.2347 85.8367 34.6939 85.8414 35.153C85.8465 35.6538 85.8516 36.1544 85.8554 36.6551C85.8595 37.2219 85.8624 37.7886 85.8652 38.3554C85.8678 38.8729 85.8703 39.3904 85.8739 39.9078C85.8794 40.6971 85.8859 41.4862 85.8924 42.2754L85.8924 42.2778L85.8924 42.2789L85.8924 42.2801C85.8941 42.4809 85.8957 42.6817 85.8973 42.8825C85.8994 43.1409 85.9015 43.3993 85.9035 43.6577C85.9042 43.7268 85.9031 43.796 85.9018 43.8649C85.9012 43.9037 85.8783 43.9234 85.8348 43.9251C85.821 43.9258 85.8072 43.9262 85.7934 43.9262C85.7592 43.9264 85.7243 43.9267 85.6901 43.927C85.5173 43.9282 85.3445 43.9295 85.1718 43.9301ZM88.534 43.9312C88.51 43.9312 88.4861 43.9292 88.4634 43.9274C88.4538 43.9267 88.4444 43.9259 88.4353 43.9253C88.4073 43.887 88.4082 43.847 88.4091 43.8079C88.4093 43.7987 88.4095 43.7896 88.4094 43.7806C88.4086 43.7065 88.4078 43.6324 88.4071 43.5583C88.4028 43.149 88.3985 42.7398 88.396 42.3305C88.3927 41.7949 88.39 41.2592 88.3872 40.7236L88.3872 40.721C88.387 40.6764 88.3867 40.6314 88.3865 40.5868C88.383 39.9181 88.3795 39.2493 88.375 38.5806C88.3671 37.3816 88.3583 36.1825 88.3495 34.9834C88.3442 34.2627 88.3389 33.542 88.3338 32.8212C88.3295 32.2179 88.3253 31.614 88.3211 31.0107L88.3211 31.0095L88.3211 31.0083C88.3136 29.9207 88.306 28.8331 88.2977 27.7454C88.2942 27.2852 88.2895 26.825 88.2848 26.3648L88.2847 26.3633C88.2796 25.8641 88.2745 25.3649 88.2709 24.8657C88.2665 24.2471 88.2632 23.6285 88.26 23.0098V23.0086C88.2596 22.9436 88.2593 22.8782 88.2589 22.8132C88.2565 22.3579 88.2541 21.9027 88.251 21.4474C88.2487 21.0909 88.2445 20.7345 88.2403 20.3781C88.2381 20.182 88.2358 19.986 88.2338 19.7899C88.2333 19.752 88.2342 19.714 88.2352 19.6762L88.2352 19.675L88.2352 19.6739C88.2353 19.6695 88.2354 19.6651 88.2356 19.6608C88.2357 19.6555 88.2358 19.6502 88.2359 19.645C88.2361 19.6327 88.2655 19.6072 88.2793 19.6063C88.2826 19.6061 88.2858 19.6052 88.289 19.6043C88.2926 19.6032 88.2961 19.6022 88.2996 19.6022C88.5415 19.6009 88.7832 19.5998 89.0249 19.5994C89.0631 19.5994 89.0871 19.6253 89.0888 19.664C89.0897 19.6847 89.0904 19.7055 89.0906 19.7262C89.091 19.7677 89.0912 19.8091 89.0914 19.8506C89.0933 20.1921 89.095 20.5342 89.0967 20.8757L89.0967 20.8768L89.0968 20.878L89.0968 20.8791L89.0968 20.8809C89.1002 21.5665 89.1037 22.2521 89.1083 22.9376C89.1175 24.3061 89.1275 25.6745 89.1374 27.0429C89.1417 27.6288 89.146 28.2148 89.1502 28.8007C89.1547 29.4294 89.1591 30.0588 89.1634 30.6875L89.1634 30.6888C89.1707 31.7375 89.1779 32.7862 89.186 33.835C89.1897 34.3185 89.1946 34.802 89.1995 35.2854C89.2046 35.7895 89.2097 36.2936 89.2135 36.7977C89.2174 37.3454 89.2202 37.893 89.2229 38.4407C89.2255 38.9634 89.2281 39.4862 89.2318 40.0089C89.2376 40.8322 89.2447 41.6561 89.2518 42.4793C89.2547 42.8229 89.2577 43.1666 89.2605 43.5102C89.2612 43.5722 89.2618 43.6344 89.2612 43.6966C89.2609 43.7289 89.2611 43.7568 89.2614 43.7807C89.2621 43.8546 89.2625 43.8916 89.2441 43.9102C89.2257 43.9288 89.1883 43.9287 89.1135 43.9286C89.09 43.9285 89.0628 43.9285 89.0314 43.929C88.8917 43.9314 88.7521 43.9313 88.6124 43.9312C88.5863 43.9312 88.5601 43.9312 88.534 43.9312ZM80.4281 19.5765C80.4286 19.5632 80.4332 19.55 80.4378 19.5366C80.44 19.5305 80.4421 19.5243 80.4439 19.518C80.4509 19.517 80.4576 19.5158 80.4641 19.5147C80.4788 19.5121 80.4928 19.5096 80.507 19.5098C80.7141 19.5059 80.9212 19.5026 81.1284 19.4996C81.1558 19.4992 81.1834 19.5001 81.2111 19.5011C81.2387 19.5022 81.2666 19.526 81.2679 19.5508C81.2703 19.599 81.2726 19.6472 81.2731 19.6953C81.2772 20.262 81.2812 20.8288 81.2852 21.3955C81.2932 22.5271 81.3012 23.6588 81.31 24.7903C81.3129 25.1639 81.3168 25.5375 81.3207 25.9111C81.3252 26.3383 81.3297 26.7655 81.3327 27.1927C81.3366 27.7415 81.3393 28.2904 81.3421 28.8393C81.3448 29.3881 81.3476 29.937 81.3515 30.4858C81.3543 30.8931 81.3585 31.3004 81.3628 31.7077C81.3671 32.115 81.3713 32.5223 81.3742 32.9296C81.3778 33.4678 81.3805 34.006 81.3833 34.5442C81.3861 35.1106 81.389 35.6771 81.3929 36.2435C81.3957 36.6508 81.4 37.0581 81.4043 37.4654C81.4085 37.8727 81.4128 38.28 81.4156 38.6873C81.42 39.3245 81.4233 39.9619 81.4265 40.5991C81.429 41.0664 81.4314 41.5338 81.4342 42.0011C81.436 42.2938 81.4391 42.5867 81.4421 42.8793C81.4436 43.0146 81.445 43.1498 81.4463 43.2852C81.4467 43.3265 81.4471 43.3678 81.4476 43.4091C81.4486 43.5059 81.4497 43.6027 81.45 43.6994C81.4502 43.8188 81.4413 43.8275 81.3217 43.8296C81.142 43.8327 80.9625 43.8353 80.783 43.8374C80.7415 43.8379 80.7003 43.8368 80.6588 43.8355C80.6243 43.8344 80.599 43.8061 80.5979 43.7674C80.597 43.733 80.5969 43.6985 80.5967 43.6639C80.5967 43.657 80.5966 43.6501 80.5966 43.6433C80.5952 43.3925 80.5938 43.1419 80.5925 42.8912C80.5898 42.3893 80.5871 41.8874 80.5837 41.3856C80.5746 40.0735 80.5651 38.7614 80.5557 37.4494C80.5509 36.7938 80.5462 36.1383 80.5415 35.4828C80.537 34.8536 80.5326 34.2245 80.5283 33.5953C80.521 32.5468 80.5138 31.4983 80.5057 30.4499C80.502 29.979 80.4972 29.508 80.4925 29.0369C80.4873 28.5208 80.4821 28.0046 80.4783 27.4884C80.4743 26.9475 80.4717 26.4066 80.4692 25.8658C80.4669 25.3986 80.4647 24.9315 80.4616 24.4644C80.4539 23.3196 80.4453 22.1747 80.4367 21.0299C80.4335 20.6007 80.4302 20.1714 80.4271 19.7422C80.427 19.7324 80.427 19.7227 80.4269 19.7129C80.4266 19.6674 80.4264 19.6219 80.4281 19.5765ZM79.9815 43.5815C79.9816 43.5988 79.982 43.6161 79.9823 43.6334C79.9835 43.6914 79.9847 43.7495 79.9761 43.8068C79.9663 43.8092 79.9576 43.8118 79.9495 43.8143C79.9343 43.8189 79.9215 43.8228 79.9087 43.823C79.6739 43.826 79.4392 43.8279 79.2044 43.8294C79.1677 43.8296 79.1411 43.8024 79.1392 43.7653C79.1385 43.7515 79.1383 43.7376 79.1381 43.7238C79.1374 43.6754 79.1368 43.6273 79.1364 43.5789C79.1334 43.1982 79.1305 42.8174 79.1276 42.4367L79.1276 42.4356C79.1189 41.2978 79.1102 40.16 79.1012 39.0223C79.0976 38.5739 79.0936 38.1253 79.0895 37.6769C79.0838 37.0415 79.0782 36.406 79.0737 35.7707C79.0699 35.2392 79.0673 34.7073 79.0648 34.1759C79.0622 33.6444 79.0596 33.1125 79.0558 32.5811C79.0528 32.1565 79.0484 31.7318 79.044 31.3073C79.0397 30.8828 79.0353 30.4581 79.0323 30.0335C79.0285 29.502 79.0259 28.9702 79.0233 28.4387C79.0207 27.9073 79.0181 27.3754 79.0143 26.8439C79.0113 26.4193 79.0069 25.9947 79.0026 25.5701C78.9982 25.1456 78.9938 24.721 78.9908 24.2964C78.9864 23.665 78.9832 23.0336 78.98 22.4023C78.9778 21.9567 78.9755 21.511 78.9729 21.0653C78.9711 20.7922 78.9683 20.5192 78.9655 20.2461C78.9637 20.0705 78.9619 19.8948 78.9603 19.7191C78.9599 19.6686 78.9615 19.6181 78.9631 19.5676C78.9633 19.563 78.9634 19.5584 78.9636 19.5538C78.9644 19.5294 78.9921 19.5035 79.0191 19.5031C79.2608 19.4992 79.5022 19.4957 79.7439 19.4929C79.7832 19.4925 79.8076 19.5178 79.8096 19.5558C79.8102 19.5696 79.8107 19.5834 79.8109 19.5972C79.8111 19.6138 79.8112 19.6304 79.8112 19.647C79.8112 19.6581 79.8112 19.6691 79.8113 19.6802C79.814 20.0813 79.8166 20.4825 79.8193 20.8836C79.8326 22.8851 79.8459 24.8865 79.8599 26.888C79.869 28.1719 79.8785 29.4558 79.888 30.7397C79.8882 30.7579 79.8883 30.7769 79.8884 30.7951L79.8885 30.797C79.8903 31.0455 79.8922 31.2941 79.894 31.5427C79.8984 32.1313 79.9027 32.7199 79.907 33.3085C79.9126 34.0768 79.9181 34.8452 79.9237 35.6135C79.9249 35.7907 79.9262 35.9687 79.9275 36.146C79.9343 37.0917 79.9411 38.0377 79.948 38.9834C79.9592 40.5163 79.9705 42.0489 79.9815 43.5815ZM76.5441 31.6517H76.5361C76.5463 32.6942 76.5582 33.7368 76.5659 34.7787C76.5739 35.8487 76.5765 36.9188 76.5841 37.989C76.5904 38.8659 76.6022 39.7426 76.6085 40.6195C76.6156 41.6413 76.6195 42.6631 76.6245 43.6849C76.6247 43.7191 76.6225 43.7534 76.6169 43.7869C76.6152 43.7973 76.6001 43.8085 76.5886 43.8134C76.5765 43.8186 76.5616 43.8178 76.5478 43.818C76.3199 43.821 76.0921 43.824 75.8642 43.8264C75.8007 43.8271 75.7828 43.8072 75.7808 43.7383C75.78 43.7106 75.7802 43.683 75.78 43.6553C75.7757 43.2687 75.7696 42.8821 75.767 42.4955C75.7573 41.0664 75.7497 39.6372 75.7394 38.208C75.7333 37.3798 75.7219 36.5512 75.7161 35.7227C75.7085 34.6666 75.7055 33.6102 75.6981 32.5538C75.6921 31.7046 75.6808 30.8556 75.6748 30.0063C75.6672 28.9361 75.6642 27.8659 75.6567 26.7957C75.6506 25.9465 75.6392 25.0975 75.6331 24.2482C75.6256 23.1711 75.6217 22.0942 75.6152 21.0171C75.6126 20.5823 75.607 20.1474 75.6033 19.7124C75.6029 19.6573 75.6031 19.602 75.6089 19.5474C75.6107 19.5314 75.6305 19.515 75.6459 19.5037C75.6558 19.4966 75.6724 19.4972 75.686 19.497C75.9208 19.4944 76.1556 19.4919 76.3904 19.4901C76.4271 19.4897 76.451 19.5165 76.4526 19.5558C76.4532 19.5696 76.4532 19.5834 76.4534 19.5972C76.4536 19.618 76.4534 19.6387 76.4536 19.6595C76.4653 21.1301 76.4783 22.6005 76.4886 24.0711C76.4962 25.1411 76.499 26.2113 76.507 27.2815C76.5178 28.7383 76.5316 30.1949 76.5441 31.6517ZM87.2655 29.1571C87.27 29.758 87.2725 30.3591 87.2753 31.0244C87.2754 31.0266 87.2754 31.0288 87.2754 31.0311C87.2766 31.3192 87.2778 31.6195 87.2793 31.937C87.2811 32.1063 87.2832 32.2916 87.2854 32.4882C87.2909 32.969 87.2971 33.5177 87.3009 34.0664C87.3049 34.6294 87.3078 35.1924 87.3106 35.7554C87.3133 36.2902 87.316 36.8251 87.3197 37.3599C87.3226 37.7594 87.3267 38.1589 87.3309 38.5584C87.3352 38.9736 87.3395 39.389 87.3424 39.8042C87.3478 40.5849 87.3518 41.3656 87.3557 42.1463L87.3557 42.1484C87.3576 42.5132 87.3594 42.878 87.3614 43.2428C87.3618 43.329 87.3627 43.4159 87.3635 43.502C87.3638 43.5396 87.3642 43.578 87.3645 43.6156C87.3649 43.664 87.3653 43.7124 87.3655 43.7608C87.3657 43.7877 87.3642 43.8147 87.3628 43.8416C87.3624 43.8488 87.362 43.856 87.3617 43.8632C87.3613 43.8703 87.361 43.8774 87.3608 43.8845C87.3601 43.8981 87.3335 43.9245 87.3202 43.9253C87.3132 43.926 87.3063 43.9266 87.2994 43.9266C87.2746 43.9267 87.2497 43.9269 87.2248 43.927C87.2097 43.927 87.1947 43.9271 87.1796 43.9272C87.1396 43.9274 87.0997 43.9276 87.0597 43.9277C86.8979 43.9285 86.7362 43.9293 86.5744 43.9299C86.5461 43.9299 86.5228 43.9072 86.5221 43.88C86.521 43.8247 86.5202 43.7696 86.5197 43.7143L86.5185 43.5416C86.5021 41.2378 86.4856 38.9339 86.469 36.6301C86.4555 34.7434 86.4418 32.8565 86.4281 30.9698C86.4281 30.9602 86.428 30.9506 86.4279 30.941L86.4277 30.913C86.414 29.0345 86.4004 27.1558 86.3869 25.2773L86.3869 25.2744L86.3869 25.2714L86.3869 25.2685L86.3868 25.2656L86.3868 25.2621L86.386 25.1545C86.3734 23.3838 86.3605 21.6131 86.3476 19.8425L86.3474 19.8102C86.3469 19.7757 86.3465 19.7411 86.3467 19.7065C86.3476 19.6089 86.3539 19.602 86.4526 19.6016C86.6804 19.6005 86.9083 19.6003 87.1361 19.6001C87.1649 19.6001 87.1888 19.6225 87.1897 19.6493C87.1912 19.6977 87.1923 19.7458 87.1927 19.7942C87.1973 20.4458 87.2018 21.0974 87.2064 21.749C87.2064 21.7515 87.2064 21.754 87.2064 21.7565L87.2064 21.7578L87.2064 21.759L87.2064 21.7603C87.2165 23.2178 87.2266 24.6753 87.2377 26.1327C87.2415 26.6256 87.2464 27.1184 87.2513 27.6113C87.2565 28.1265 87.2617 28.6418 87.2655 29.1571ZM89.704 19.8156C89.7037 19.7747 89.7038 19.7333 89.7039 19.6918C89.7039 19.6708 89.704 19.6496 89.704 19.6284C89.7116 19.6254 89.7186 19.6221 89.7254 19.619C89.7396 19.6124 89.7522 19.6065 89.7649 19.6068C90.0066 19.6046 90.2482 19.6042 90.4899 19.6037C90.5288 19.6037 90.5476 19.626 90.5485 19.6705C90.5494 19.7106 90.5495 19.751 90.5497 19.7913C90.5497 19.7993 90.5497 19.8074 90.5497 19.8154C90.5502 19.9004 90.5505 19.9854 90.5508 20.0704C90.5515 20.2615 90.5522 20.453 90.5547 20.6441C90.575 22.1492 90.5825 23.6545 90.5899 25.1596C90.5916 25.4981 90.5933 25.8367 90.5951 26.1752C90.5972 26.5876 90.602 27.0001 90.6067 27.4124C90.6106 27.7526 90.6145 28.0928 90.6169 28.4331C90.6209 28.9961 90.6238 29.5592 90.6266 30.1223C90.6293 30.6571 90.632 31.192 90.6357 31.7268C90.6385 32.1306 90.6427 32.5345 90.6469 32.9383C90.6512 33.3423 90.6554 33.7463 90.6582 34.1504C90.6622 34.7098 90.665 35.2694 90.6679 35.8289C90.6706 36.3604 90.6733 36.8919 90.677 37.4234C90.6798 37.8261 90.684 38.2289 90.6881 38.6317C90.6925 39.0506 90.6968 39.4695 90.6996 39.8884C90.7055 40.7528 90.7098 41.6172 90.714 42.4817L90.714 42.4837C90.7155 42.7925 90.7171 43.1012 90.7186 43.41C90.7193 43.5255 90.7191 43.6413 90.719 43.758C90.7189 43.8084 90.7189 43.859 90.7189 43.91C90.7127 43.9122 90.7065 43.915 90.7003 43.9178C90.6877 43.9236 90.6751 43.9293 90.6625 43.9294C90.4208 43.9312 90.1791 43.9316 89.9374 43.9316C89.896 43.9316 89.8793 43.9122 89.878 43.8664C89.8776 43.8456 89.8774 43.8249 89.8772 43.8042C89.8744 43.4461 89.8719 43.087 89.8693 42.7289L89.8693 42.7279L89.8693 42.7269L89.8692 42.7063L89.8264 36.7402L89.785 31.002L89.7435 25.2638L89.704 19.8156Z" fill="#1D1D1D"/>
<path d="M66.3981 6.03204C66.411 6.0275 66.424 6.01865 66.4367 6.01865C74.1661 6.01714 81.8955 6.01627 89.6248 6.01562C89.6786 6.01562 89.7324 6.01843 89.7855 6.01994C89.7877 6.04349 89.7795 6.04975 89.7646 6.0545C89.5937 6.1072 89.4227 6.15947 89.2525 6.21455C87.9929 6.62254 86.8488 7.24543 85.816 8.07178C84.7307 8.94003 83.8432 9.97826 83.1512 11.1839C83.1104 11.2549 83.0782 11.3318 83.0145 11.3895C82.9903 11.4113 82.978 11.4476 82.9641 11.4791C82.8104 11.8256 82.6568 12.172 82.5052 12.5193C82.4808 12.5755 82.4549 12.6316 82.459 12.6979C82.4609 12.7299 82.4404 12.7634 82.43 12.796C82.2847 13.2491 82.1594 13.7078 82.0639 14.1742C82.0073 14.451 81.9596 14.7297 81.9168 15.0094C81.873 15.2962 81.8404 15.5841 81.8117 15.8722C81.7842 16.1467 81.7736 16.4232 81.7553 16.6986C81.7525 16.7396 81.7492 16.7809 81.7423 16.8215C81.7406 16.832 81.7253 16.8426 81.7138 16.8487C81.7022 16.8549 81.6875 16.8577 81.6741 16.8582C81.6188 16.8595 81.5635 16.8595 81.5084 16.8595C79.4568 16.8595 77.4054 16.8597 75.3538 16.8593C75.0819 16.8593 75.1274 16.8854 75.1013 16.6342C75.0963 16.5863 75.0935 16.5379 75.0916 16.4895C75.0793 16.1789 75.046 15.8703 75.0112 15.5614C74.9603 15.1085 74.8883 14.6593 74.794 14.2137C74.5816 13.2109 74.2577 12.2469 73.784 11.3355C73.119 10.0558 72.197 9.00094 71.0201 8.16746C70.2853 7.64694 69.4952 7.22858 68.6635 6.88776C68.0004 6.61627 67.3214 6.39143 66.6266 6.21541C66.5732 6.2018 66.5199 6.18776 66.4667 6.17372C66.4006 6.15623 66.386 6.13247 66.3918 6.05126C66.3929 6.04478 66.3961 6.03852 66.3981 6.03204Z" fill="#1D1D1D"/>
<path d="M84.4138 16.9437C84.4056 16.9266 84.3926 16.9093 84.3892 16.8906C84.3827 16.8569 84.3792 16.8221 84.379 16.7877C84.3762 16.5113 84.3453 16.2366 84.3226 15.9614C84.3079 15.7828 84.2788 15.6055 84.2587 15.4273C84.2356 15.2214 84.2015 15.0175 84.1667 14.8134C84.0568 14.1668 83.8987 13.532 83.6889 12.9106C83.6008 12.6495 83.5041 12.3914 83.393 12.1389C83.3682 12.0823 83.3755 12.0363 83.4036 11.983C83.7067 11.4078 84.0572 10.8631 84.4572 10.3508C85.5816 8.91129 86.9714 7.80394 88.6278 7.03181C89.2846 6.72554 89.9665 6.49034 90.6693 6.31669C91.0168 6.23094 91.3693 6.16485 91.7241 6.11496C91.765 6.10913 91.8067 6.10848 91.8479 6.10805C91.9308 6.10697 92.0136 6.10761 92.0965 6.10761C94.5207 6.10761 96.9449 6.10761 99.3691 6.10783C99.438 6.10783 99.5071 6.10999 99.576 6.11215C99.5997 6.1128 99.6205 6.14088 99.6224 6.17111C99.6259 6.22554 99.6118 6.248 99.5624 6.26183C99.3172 6.33051 99.071 6.3953 98.8272 6.46787C97.9611 6.72576 97.12 7.04757 96.3179 7.46593C95.6552 7.8115 95.0324 8.2169 94.4594 8.69854C93.7393 9.30394 93.1391 10.0104 92.6542 10.8163C92.211 11.5528 91.8756 12.3361 91.6244 13.1566C91.4708 13.6582 91.3518 14.1683 91.2604 14.6843C91.2015 15.0169 91.1535 15.3517 91.1187 15.6882C91.079 16.0728 91.0427 16.4575 91.0321 16.8441C91.0315 16.8646 91.03 16.886 91.0237 16.9055C91.0177 16.9242 91.0075 16.9435 90.9835 16.9469C90.9699 16.9489 90.9563 16.9523 90.9427 16.9525C90.8874 16.9534 90.8321 16.9532 90.7771 16.9532C88.7328 16.9532 86.6885 16.9534 84.644 16.9528C84.5682 16.9525 84.492 16.9614 84.4138 16.9437Z" fill="#1D1D1D"/>
<path d="M78.4574 18.3053C77.4219 18.3092 76.3867 18.3129 75.3513 18.3165C75.2962 18.3168 75.241 18.3159 75.1859 18.3144C75.1507 18.3135 75.125 18.2857 75.1248 18.2468C75.1241 17.9984 75.1239 17.75 75.1241 17.5016C75.1241 17.4727 75.1468 17.4481 75.1721 17.4463C75.1859 17.4455 75.1995 17.4435 75.2133 17.4433C75.241 17.4427 75.2686 17.4429 75.296 17.4427C77.3736 17.4325 79.4513 17.4224 81.5289 17.4122C81.5978 17.4118 81.6669 17.4127 81.7358 17.4142C81.7729 17.4148 81.7965 17.4403 81.7967 17.4809C81.7975 17.7293 81.7978 17.9777 81.7978 18.226C81.7978 18.255 81.7755 18.28 81.7496 18.2807C81.6876 18.2824 81.6254 18.2844 81.5634 18.2846C80.528 18.2902 79.4928 18.2958 78.4574 18.3012C78.4574 18.3027 78.4574 18.304 78.4574 18.3053Z" fill="#1D1D1D"/>
<path d="M87.725 18.4066C86.6965 18.4066 85.668 18.4066 84.6395 18.4066C84.5773 18.4066 84.5153 18.4055 84.4531 18.4045C84.4261 18.4038 84.4053 18.3805 84.4053 18.35C84.4051 18.0947 84.4056 17.8397 84.4056 17.5844C84.4056 17.5708 84.4313 17.5403 84.4425 17.5395C84.4563 17.5384 84.4699 17.5369 84.4837 17.5366C84.5321 17.5362 84.5803 17.5362 84.6287 17.536C86.6926 17.5276 88.7565 17.5192 90.8205 17.5107C91.1161 17.5094 91.0747 17.4868 91.0779 17.7604C91.0798 17.9261 91.079 18.0917 91.0794 18.2574C91.0794 18.2781 91.0794 18.2989 91.0788 18.3196C91.0775 18.357 91.0511 18.3876 91.0174 18.3887C90.9554 18.3911 90.8935 18.3928 90.8313 18.393C89.7958 18.3965 88.7604 18.3997 87.725 18.403C87.725 18.4038 87.725 18.4053 87.725 18.4066Z" fill="#1D1D1D"/>
</g>
<path d="M78 66V64.5H67.6842L62.6316 55H62V65.9985L78 66Z" fill="#1D1D1D"/>
<path d="M88 66V64.5H98.3158L103.368 55H104V65.9985L88 66Z" fill="#1D1D1D"/>
<defs>
<clipPath id="clip0_2035_2726">
<rect width="33.2613" height="60" fill="white" transform="translate(66.3691 6)"/>
</clipPath>
</defs>
</g>
</svg>
