<svg width="157" height="21" viewBox="0 0 157 21" fill="none" xmlns="http://www.w3.org/2000/svg">
<path d="M2.53367 1.1L0.573672 0.819998V0.399999H11.2137V0.819998L9.25367 1.1V19.3H16.1137L19.4737 12.58H19.8937V20H0.573672V19.58L2.53367 19.3V1.1ZM30.7428 0.399999H33.8228L41.9428 19.3L43.9028 19.58V20H32.6468V19.58L34.8588 19.3L32.5348 13.84H25.8148L23.4908 19.3L25.7028 19.58V20H20.7468V19.58L22.7068 19.3L30.7428 0.399999ZM26.1228 13.14H32.2268L29.1748 6.028L26.1228 13.14ZM66.7528 20H63.5328L57.2888 6.392L52.3048 20H49.0848L40.4048 1.1L38.4448 0.819998V0.399999H49.0848V0.819998L47.4608 1.044L53.4808 14.092L56.7568 5.272L54.8528 1.1L52.8928 0.819998V0.399999H63.5328V0.819998L61.9088 1.044L67.9288 14.092L72.7728 1.072L71.0928 0.819998V0.399999H75.6288V0.819998L73.6688 1.1L66.7528 20ZM73.3414 17.816C73.3414 16.36 74.5734 15.352 76.0574 15.352C77.4854 15.352 78.7454 16.36 78.7454 17.816C78.7454 19.272 77.4854 20.336 76.0574 20.336C74.5734 20.336 73.3414 19.272 73.3414 17.816ZM83.3266 1.1L81.3666 0.819998V0.399999H92.0066V0.819998L90.0466 1.1V19.3H96.9066L100.267 12.58H100.687V20H81.3666V19.58L83.3266 19.3V1.1ZM111.536 0.399999H114.616L122.736 19.3L124.696 19.58V20H113.44V19.58L115.652 19.3L113.328 13.84H106.608L104.284 19.3L106.496 19.58V20H101.54V19.58L103.5 19.3L111.536 0.399999ZM106.916 13.14H113.02L109.968 6.028L106.916 13.14ZM147.546 20H144.326L138.082 6.392L133.098 20H129.878L121.198 1.1L119.238 0.819998V0.399999H129.878V0.819998L128.254 1.044L134.274 14.092L137.55 5.272L135.646 1.1L133.686 0.819998V0.399999H144.326V0.819998L142.702 1.044L148.722 14.092L153.566 1.072L151.886 0.819998V0.399999H156.422V0.819998L154.462 1.1L147.546 20Z" fill="#1D1D1D"/>
</svg>
