<svg xmlns="http://www.w3.org/2000/svg" xmlns:xlink="http://www.w3.org/1999/xlink" version="1.1">
    <svg xmlns="http://www.w3.org/2000/svg" xmlns:xlink="http://www.w3.org/1999/xlink" version="1.1">
        <!-- для css -->
        <view id="angle-down-view" viewBox="0 0 24 24"/>
        <use xlink:href="#angle-down" width="24" height="24" x="0" y="0"/>
        <view id="icon-checkbox-view" viewBox="25 0 25 25"/>
        <use xlink:href="#icon-checkbox" width="25" height="25" x="25" y="0"/>

        <!-- для html -->
        <symbol viewBox="0 0 24 24" id="icon-locaition">
            <path d="M17.657 16.657L13.414 20.9C13.2285 21.0858 13.0082 21.2333 12.7656 21.3339C12.5231 21.4345 12.2631 21.4863 12.0005 21.4863C11.7379 21.4863 11.4779 21.4345 11.2354 21.3339C10.9928 21.2333 10.7725 21.0858 10.587 20.9L6.343 16.657C5.22422 15.5381 4.46234 14.1127 4.15369 12.5608C3.84504 11.009 4.00349 9.40047 4.60901 7.93868C5.21452 6.4769 6.2399 5.22749 7.55548 4.34846C8.87107 3.46943 10.4178 3.00024 12 3.00024C13.5822 3.00024 15.1289 3.46943 16.4445 4.34846C17.7601 5.22749 18.7855 6.4769 19.391 7.93868C19.9965 9.40047 20.155 11.009 19.8463 12.5608C19.5377 14.1127 18.7758 15.5381 17.657 16.657Z" fill="transparent" stroke="currentColor" stroke-width="2" stroke-linecap="round" stroke-linejoin="round"/>
            <path d="M14.121 13.121C14.4123 12.8455 14.6454 12.5143 14.8066 12.1471C14.9677 11.78 15.0536 11.3842 15.0592 10.9832C15.0648 10.5823 14.9899 10.1843 14.839 9.81278C14.6881 9.44125 14.4643 9.10375 14.1808 8.82021C13.8972 8.53667 13.5597 8.31285 13.1882 8.16197C12.8167 8.0111 12.4187 7.93624 12.0178 7.94182C11.6168 7.94739 11.221 8.03329 10.8539 8.19444C10.4867 8.35558 10.1555 8.5887 9.87998 8.88002C9.3335 9.44582 9.03112 10.2036 9.03796 10.9902C9.04479 11.7768 9.3603 12.5292 9.91652 13.0855C10.4727 13.6417 11.2252 13.9572 12.0118 13.964C12.7984 13.9709 13.5562 13.6685 14.122 13.122L14.121 13.121Z" fill="transparent" stroke="currentColor" stroke-width="2" stroke-linecap="round" stroke-linejoin="round"/>
        </symbol>
        <symbol viewBox="0 0 24 24" id="icon-whatsapp">
            <path fill-rule="evenodd" clip-rule="evenodd" d="M19.44 4.55205C18.4693 3.58081 17.3161 2.81114 16.0468 2.28735C14.7775 1.76356 13.4171 1.49599 12.044 1.50005C6.281 1.50005 1.59 6.16805 1.588 11.906C1.58549 13.7333 2.06716 15.5285 2.984 17.109L1.5 22.5L7.043 21.053C8.57733 21.8844 10.2949 22.3195 12.04 22.319H12.044C17.806 22.319 22.497 17.65 22.5 11.912C22.5034 10.5436 22.2346 9.18824 21.7092 7.9247C21.1839 6.66115 20.4125 5.5147 19.44 4.55205ZM12.044 20.562H12.04C10.4845 20.5627 8.95721 20.1466 7.617 19.357L7.3 19.169L4.01 20.028L4.889 16.836L4.682 16.508C3.81211 15.1309 3.35123 13.535 3.353 11.906C3.353 7.13805 7.253 3.25805 12.047 3.25805C14.3468 3.2538 16.5541 4.16324 18.1834 5.78634C19.8127 7.40944 20.7305 9.61326 20.735 11.913C20.733 16.682 16.835 20.563 12.045 20.563L12.044 20.562ZM16.811 14.085C16.55 13.955 15.264 13.325 15.026 13.238C14.788 13.152 14.612 13.108 14.438 13.368C14.264 13.629 13.763 14.213 13.611 14.388C13.458 14.564 13.306 14.583 13.045 14.453C12.784 14.323 11.941 14.049 10.943 13.163C10.167 12.473 9.643 11.622 9.49 11.362C9.338 11.102 9.474 10.96 9.605 10.831C9.722 10.714 9.865 10.527 9.997 10.375C10.127 10.223 10.171 10.115 10.257 9.94105C10.344 9.76805 10.301 9.61604 10.237 9.48605C10.171 9.35605 9.648 8.07605 9.431 7.55605C9.218 7.04805 9.003 7.11705 8.843 7.10905C8.691 7.10205 8.515 7.09905 8.342 7.09905C8.20964 7.10249 8.07942 7.13323 7.95949 7.18932C7.83955 7.24542 7.73249 7.32567 7.645 7.42505C7.405 7.68505 6.731 8.31505 6.731 9.59505C6.731 10.873 7.668 12.111 7.798 12.285C7.927 12.458 9.64 15.084 12.261 16.21C12.747 16.419 13.245 16.602 13.751 16.758C14.376 16.956 14.946 16.928 15.396 16.861C15.898 16.786 16.942 16.231 17.16 15.624C17.377 15.017 17.377 14.497 17.312 14.388C17.247 14.28 17.072 14.214 16.811 14.085Z" fill="currentColor"/>
        </symbol>
        <symbol viewBox="0 0 24 24" id="icon-cart">
            <path d="M8.25 20.25C8.44891 20.25 8.63968 20.171 8.78033 20.0303C8.92098 19.8897 9 19.6989 9 19.5C9 19.3011 8.92098 19.1103 8.78033 18.9697C8.63968 18.829 8.44891 18.75 8.25 18.75C8.05109 18.75 7.86032 18.829 7.71967 18.9697C7.57902 19.1103 7.5 19.3011 7.5 19.5C7.5 19.6989 7.57902 19.8897 7.71967 20.0303C7.86032 20.171 8.05109 20.25 8.25 20.25Z" fill="transparent" stroke="currentColor" stroke-width="2" stroke-linecap="round" stroke-linejoin="round"/>
            <path d="M18.75 20.25C18.9489 20.25 19.1397 20.171 19.2803 20.0303C19.421 19.8897 19.5 19.6989 19.5 19.5C19.5 19.3011 19.421 19.1103 19.2803 18.9697C19.1397 18.829 18.9489 18.75 18.75 18.75C18.5511 18.75 18.3603 18.829 18.2197 18.9697C18.079 19.1103 18 19.3011 18 19.5C18 19.6989 18.079 19.8897 18.2197 20.0303C18.3603 20.171 18.5511 20.25 18.75 20.25Z"  fill="transparent" stroke="currentColor" stroke-width="2" stroke-linecap="round" stroke-linejoin="round"/>
            <path d="M2.25 3.75H5.25L7.5 16.5H19.5"  fill="transparent" stroke="currentColor" stroke-width="2" stroke-linecap="round" stroke-linejoin="round"/>
            <path d="M7.5 13.5H19.192C19.2788 13.5003 19.3631 13.4705 19.4304 13.4156C19.4977 13.3607 19.5439 13.2841 19.561 13.199L20.911 6.449C20.9218 6.3944 20.9204 6.33807 20.9067 6.2841C20.8931 6.23012 20.8677 6.17984 20.8323 6.13688C20.7969 6.09393 20.7524 6.05936 20.7021 6.03569C20.6517 6.01202 20.5967 5.99983 20.541 6H6" fill="transparent" stroke="currentColor" stroke-width="2" stroke-linecap="round" stroke-linejoin="round"/>
        </symbol>
        <symbol viewBox="0 0 24 24" id="icon-warehouse">
            <path d="M6 18H18M6 14H18M22 8.35002V20C22 20.5305 21.7893 21.0392 21.4142 21.4142C21.0391 21.7893 20.5304 22 20 22H4C3.46957 22 2.96086 21.7893 2.58579 21.4142C2.21071 21.0392 2 20.5305 2 20V8.35002C2.00161 7.95117 2.12244 7.5619 2.34696 7.23225C2.57149 6.90259 2.88945 6.64759 3.26 6.50002L11.26 3.30002C11.7352 3.11077 12.2648 3.11077 12.74 3.30002L20.74 6.50002C21.1106 6.64759 21.4285 6.90259 21.653 7.23225C21.8776 7.5619 21.9984 7.95117 22 8.35002Z" fill="transparent" stroke="currentColor" stroke-width="2" stroke-linecap="round" stroke-linejoin="round"/>
            <path d="M6 10H18V22H6V10Z" fill="transparent" stroke="currentColor" stroke-width="2" stroke-linecap="round" stroke-linejoin="round"/>
        </symbol>
        <symbol viewBox="0 0 24 24" id="icon-delivery">
            <path d="M3 12.75C3 12.3358 3.33579 12 3.75 12H11.25C11.6642 12 12 12.3358 12 12.75C12 13.1642 11.6642 13.5 11.25 13.5H3.75C3.33579 13.5 3 13.1642 3 12.75ZM1.5 9C1.5 8.58579 1.83579 8.25 2.25 8.25H8.25C8.66421 8.25 9 8.58579 9 9C9 9.41421 8.66421 9.75 8.25 9.75H2.25C1.83579 9.75 1.5 9.41421 1.5 9Z" fill="currentColor" />
            <path d="M22.4393 12.4545L20.1893 7.2045C20.1315 7.06956 20.0354 6.95455 19.9129 6.87375C19.7903 6.79295 19.6468 6.74992 19.5 6.75H17.25V5.25C17.25 5.05109 17.171 4.86032 17.0303 4.71967C16.8897 4.57902 16.6989 4.5 16.5 4.5C16.5 4.5 5.25262 4.5 4.50001 4.5C3.7474 4.5 3.80341 6 4.50001 6C5.1966 6 15.75 6 15.75 6V15.417C15.4083 15.6154 15.1092 15.8796 14.87 16.1942C14.6308 16.5088 14.4563 16.8676 14.3565 17.25H9.64351C9.46096 16.543 9.02683 15.9269 8.4225 15.517C7.81817 15.1072 7.08512 14.9319 6.36076 15.0239C5.6364 15.1159 4.97046 15.4689 4.48777 16.0168C4.00507 16.5647 3.73877 17.2698 3.73877 18C3.73877 18.7302 4.00507 19.4353 4.48777 19.9832C4.97046 20.5311 5.6364 20.8841 6.36076 20.9761C7.08512 21.0681 7.81817 20.8928 8.4225 20.483C9.02683 20.0731 9.46096 19.457 9.64351 18.75H14.3565C14.5197 19.3937 14.8928 19.9646 15.4168 20.3724C15.9409 20.7802 16.586 21.0016 17.25 21.0016C17.914 21.0016 18.5591 20.7802 19.0832 20.3724C19.6072 19.9646 19.9804 19.3937 20.1435 18.75H21.75C21.9489 18.75 22.1397 18.671 22.2803 18.5303C22.421 18.3897 22.5 18.1989 22.5 18V12.75C22.5 12.6484 22.4794 12.5479 22.4393 12.4545ZM6.75001 19.5C6.45334 19.5 6.16333 19.412 5.91665 19.2472C5.66998 19.0824 5.47772 18.8481 5.36419 18.574C5.25066 18.2999 5.22095 17.9983 5.27883 17.7074C5.33671 17.4164 5.47957 17.1491 5.68935 16.9393C5.89913 16.7296 6.1664 16.5867 6.45737 16.5288C6.74834 16.4709 7.04994 16.5006 7.32403 16.6142C7.59812 16.7277 7.83239 16.92 7.99721 17.1666C8.16203 17.4133 8.25001 17.7033 8.25001 18C8.24961 18.3977 8.09145 18.779 7.81023 19.0602C7.52901 19.3414 7.14771 19.4996 6.75001 19.5ZM17.25 8.25H19.005L20.613 12H17.25V8.25ZM17.25 19.5C16.9533 19.5 16.6633 19.412 16.4167 19.2472C16.17 19.0824 15.9777 18.8481 15.8642 18.574C15.7507 18.2999 15.721 17.9983 15.7788 17.7074C15.8367 17.4164 15.9796 17.1491 16.1893 16.9393C16.3991 16.7296 16.6664 16.5867 16.9574 16.5288C17.2483 16.4709 17.5499 16.5006 17.824 16.6142C18.0981 16.7277 18.3324 16.92 18.4972 17.1666C18.662 17.4133 18.75 17.7033 18.75 18C18.7496 18.3977 18.5914 18.779 18.3102 19.0602C18.029 19.3414 17.6477 19.4996 17.25 19.5ZM21 17.25H20.1435C19.9783 16.6076 19.6046 16.0381 19.0809 15.6309C18.5573 15.2238 17.9133 15.0018 17.25 15V13.5H21V17.25Z" fill="currentColor" />
        </symbol>
        <symbol viewBox="0 0 24 24" id="icon-discount">
            <path d="M17.76 3.76318H6.24002C4.11925 3.76318 2.40002 5.48241 2.40002 7.60318V17.2032C2.40002 19.324 4.11925 21.0432 6.24002 21.0432H17.76C19.8808 21.0432 21.6 19.324 21.6 17.2032V7.60318C21.6 5.48241 19.8808 3.76318 17.76 3.76318Z" fill="transparent" stroke="currentColor" stroke-width="1.44" stroke-linecap="round" stroke-linejoin="round"/>
            <path d="M7.19995 17.2031L16.8 7.60315" fill="transparent" stroke="currentColor" stroke-width="1.44" stroke-linecap="round" stroke-linejoin="round"/>
            <path d="M8.15999 11.4431C9.22038 11.4431 10.08 10.5835 10.08 9.52315C10.08 8.46276 9.22038 7.60315 8.15999 7.60315C7.0996 7.60315 6.23999 8.46276 6.23999 9.52315C6.23999 10.5835 7.0996 11.4431 8.15999 11.4431Z" fill="transparent" stroke="currentColor" stroke-width="1.44" stroke-linecap="round" stroke-linejoin="round"/>
            <path d="M15.84 17.2032C16.9005 17.2032 17.76 16.3436 17.76 15.2832C17.76 14.2228 16.9005 13.3632 15.84 13.3632C14.7796 13.3632 13.92 14.2228 13.92 15.2832C13.92 16.3436 14.7796 17.2032 15.84 17.2032Z" fill="transparent" stroke="currentColor" stroke-width="1.44" stroke-linecap="round" stroke-linejoin="round"/>
        </symbol>
        <symbol viewBox="0 0 24 24" id="icon-yandex">
            <g clip-path="url(#clip0_29_8532)">
                <path d="M12 23.9755C18.6139 23.9755 23.9755 18.6139 23.9755 12C23.9755 5.38605 18.6139 0.0244141 12 0.0244141C5.38605 0.0244141 0.0244141 5.38605 0.0244141 12C0.0244141 18.6139 5.38605 23.9755 12 23.9755Z" fill="currentColor"/>
                <path d="M16.3333 19.5178H13.7044V6.51554H12.5333C10.3867 6.51554 9.26221 7.58887 9.26221 9.19109C9.26221 11.0089 10.0378 11.8511 11.6422 12.9244L12.9644 13.8155L9.16443 19.5155H6.33777L9.75777 14.4266C7.7911 13.0222 6.68443 11.6511 6.68443 9.33776C6.68443 6.44665 8.69999 4.47998 12.5155 4.47998H16.3155V19.5133H16.3333V19.5178Z" fill="white"/>
            </g>
            <defs>
                <clipPath id="clip0_29_8532">
                    <rect width="24" height="24" fill="white"/>
                </clipPath>
            </defs>
        </symbol>
        <symbol viewBox="0 0 24 24" id="icon-quality">
            <path d="M9 12.056L11 14.056L15 10.056" fill="transparent" stroke="currentColor" stroke-width="2" stroke-linecap="round" stroke-linejoin="round"/>
            <path d="M20.618 6.04C17.4561 6.20792 14.3567 5.11461 12 3C9.64327 5.11461 6.5439 6.20792 3.382 6.04C3.12754 7.02511 2.99918 8.03855 3 9.056C3 14.647 6.824 19.346 12 20.678C17.176 19.346 21 14.648 21 9.056C21 8.014 20.867 7.004 20.618 6.04Z" fill="transparent" stroke="currentColor" stroke-width="2" stroke-linecap="round" stroke-linejoin="round"/>
        </symbol>
        <symbol viewBox="0 0 24 24" id="icon-label">
            <path d="M7 7H7.01M7 3H12C12.2627 2.99951 12.5229 3.05104 12.7656 3.15162C13.0083 3.2522 13.2287 3.39983 13.414 3.586L20.414 10.586C20.7889 10.9611 20.9996 11.4697 20.9996 12C20.9996 12.5303 20.7889 13.0389 20.414 13.414L13.414 20.414C13.0389 20.7889 12.5303 20.9996 12 20.9996C11.4697 20.9996 10.9611 20.7889 10.586 20.414L3.586 13.414C3.40005 13.2285 3.25256 13.0081 3.152 12.7654C3.05144 12.5228 2.99978 12.2627 3 12V7C3 5.93914 3.42143 4.92172 4.17157 4.17158C4.92172 3.42143 5.93913 3 7 3Z" fill="transparent" stroke="currentColor" stroke-width="2" stroke-linecap="round" stroke-linejoin="round"/>
        </symbol>
        <symbol viewBox="0 0 24 24" id="icon-users">
            <path d="M17 20H22V18C22 17.3766 21.8057 16.7686 21.4442 16.2607C21.0827 15.7527 20.5719 15.37 19.9828 15.1658C19.3937 14.9615 18.7557 14.9459 18.1573 15.121C17.5589 15.2962 17.03 15.6534 16.644 16.143" fill="transparent" stroke="currentColor" stroke-width="2" stroke-linecap="round" stroke-linejoin="round"/>
            <path d="M7 20H17V18C17.0018 17.1825 16.8024 16.3772 16.4194 15.6551C16.0364 14.9329 15.4817 14.3161 14.804 13.859C14.052 13.3504 13.1757 13.0561 12.2691 13.0076C11.3625 12.9591 10.4599 13.1583 9.65788 13.5838C8.85588 14.0092 8.1848 14.6449 7.71657 15.4227C7.24835 16.2005 7.00064 17.0911 7 17.999V20Z" fill="transparent" stroke="currentColor" stroke-width="2" stroke-linecap="round" stroke-linejoin="round"/>
            <path d="M7.356 16.143C6.97003 15.6534 6.4411 15.2962 5.84274 15.121C5.24438 14.9459 4.60632 14.9615 4.01725 15.1658C3.42819 15.37 2.91739 15.7527 2.55586 16.2607C2.19434 16.7686 2.00005 17.3766 2 18V20H7" fill="transparent" stroke="currentColor" stroke-width="2" stroke-linecap="round" stroke-linejoin="round"/>
            <path d="M20.414 11.414C20.605 11.2295 20.7573 11.0089 20.8622 10.7648C20.967 10.5208 21.0222 10.2584 21.0245 9.99284C21.0268 9.72728 20.9762 9.46392 20.8756 9.21813C20.775 8.97234 20.6265 8.74904 20.4387 8.56125C20.251 8.37346 20.0277 8.22496 19.7819 8.1244C19.5361 8.02383 19.2727 7.97323 19.0072 7.97554C18.7416 7.97785 18.4792 8.03302 18.2352 8.13784C17.9911 8.24266 17.7705 8.39502 17.586 8.58604C17.2216 8.96325 17.0201 9.46845 17.0246 9.99284C17.0292 10.5172 17.2395 11.0189 17.6103 11.3897C17.9811 11.7605 18.4828 11.9708 19.0072 11.9754C19.5316 11.9799 20.0368 11.7784 20.414 11.414Z" fill="transparent" stroke="currentColor" stroke-width="2" stroke-linecap="round" stroke-linejoin="round"/>
            <path d="M15 7C15 7.79565 14.6839 8.55871 14.1213 9.12132C13.5587 9.68393 12.7956 10 12 10C11.2044 10 10.4413 9.68393 9.87868 9.12132C9.31607 8.55871 9 7.79565 9 7C9 6.20435 9.31607 5.44129 9.87868 4.87868C10.4413 4.31607 11.2044 4 12 4C12.7956 4 13.5587 4.31607 14.1213 4.87868C14.6839 5.44129 15 6.20435 15 7Z" fill="transparent" stroke="currentColor" stroke-width="2" stroke-linecap="round" stroke-linejoin="round"/>
            <path d="M6.41396 11.414C6.60498 11.2295 6.75734 11.0089 6.86216 10.7648C6.96698 10.5208 7.02215 10.2584 7.02446 9.99284C7.02677 9.72728 6.97616 9.46392 6.8756 9.21813C6.77504 8.97234 6.62653 8.74904 6.43875 8.56125C6.25096 8.37346 6.02766 8.22496 5.78187 8.1244C5.53608 8.02383 5.27272 7.97323 5.00716 7.97554C4.7416 7.97785 4.47916 8.03302 4.23515 8.13784C3.99114 8.24266 3.77045 8.39502 3.58596 8.58604C3.22164 8.96325 3.02005 9.46845 3.02461 9.99284C3.02917 10.5172 3.23951 11.0189 3.61032 11.3897C3.98114 11.7605 4.48276 11.9708 5.00716 11.9754C5.53155 11.9799 6.03676 11.7784 6.41396 11.414Z" fill="transparent" stroke="currentColor" stroke-width="2" stroke-linecap="round" stroke-linejoin="round"/>
        </symbol>
        <symbol viewBox="0 0 24 24" id="icon-vk">
            <g clip-path="url(#clip0_29_8708)">
                <path d="M12 0.47998C5.63758 0.47998 0.47998 5.63758 0.47998 12C0.47998 18.3624 5.63758 23.52 12 23.52C18.3624 23.52 23.52 18.3624 23.52 12C23.52 5.63758 18.3624 0.47998 12 0.47998ZM16.4304 13.4772C16.4304 13.4772 17.4492 14.4828 17.7 14.9496C17.7072 14.9592 17.7108 14.9688 17.7132 14.9736C17.8152 15.1452 17.8392 15.2784 17.7888 15.378C17.7048 15.5436 17.4168 15.6252 17.3184 15.6324H15.5184C15.3936 15.6324 15.132 15.6 14.8152 15.3816C14.5716 15.2112 14.3316 14.9316 14.0976 14.6592C13.7484 14.2536 13.446 13.9032 13.1412 13.9032C13.1025 13.9031 13.064 13.9092 13.0272 13.9212C12.7968 13.9956 12.5016 14.3244 12.5016 15.2004C12.5016 15.474 12.2856 15.6312 12.1332 15.6312H11.3088C11.028 15.6312 9.56518 15.5328 8.26918 14.166C6.68278 12.492 5.25478 9.13438 5.24278 9.10318C5.15278 8.88598 5.33878 8.76958 5.54158 8.76958H7.35958C7.60198 8.76958 7.68118 8.91718 7.73638 9.04798C7.80118 9.20038 8.03878 9.80638 8.42878 10.488C9.06118 11.5992 9.44878 12.0504 9.75958 12.0504C9.81786 12.0497 9.8751 12.0349 9.92638 12.0072C10.332 11.7816 10.2564 10.3356 10.2384 10.0356C10.2384 9.97918 10.2372 9.38878 10.0296 9.10558C9.88078 8.90038 9.62758 8.82238 9.47398 8.79358C9.53615 8.70779 9.61806 8.63823 9.71278 8.59078C9.99118 8.45158 10.4928 8.43118 10.9908 8.43118H11.268C11.808 8.43838 11.9472 8.47318 12.1428 8.52238C12.5388 8.61718 12.5472 8.87278 12.5124 9.74758C12.5016 9.99598 12.4908 10.2768 12.4908 10.608C12.4908 10.68 12.4872 10.7568 12.4872 10.8384C12.4752 11.2836 12.4608 11.7888 12.7752 11.9964C12.8162 12.0221 12.8636 12.0358 12.912 12.036C13.0212 12.036 13.35 12.036 14.2404 10.5084C14.515 10.0167 14.7536 9.50575 14.9544 8.97958C14.9724 8.94838 15.0252 8.85238 15.0876 8.81518C15.1336 8.7917 15.1847 8.77976 15.2364 8.78038H17.3736C17.6064 8.78038 17.766 8.81518 17.796 8.90518C17.8488 9.04798 17.7864 9.48358 16.8108 10.8048L16.3752 11.3796C15.4908 12.5388 15.4908 12.5976 16.4304 13.4772Z" fill="currentColor"/>
            </g>
        </symbol>
        <symbol viewBox="0 0 24 24" id="icon-whatsapp-dark">
            <path d="M20.16 6.84C17.28 2.4 11.4 1.08 6.83998 3.84C2.39998 6.6 0.95998 12.6 3.83998 17.04L4.07998 17.4L3.11998 21L6.71998 20.04L7.07998 20.28C8.63998 21.12 10.32 21.6 12 21.6C13.8 21.6 15.6 21.12 17.16 20.16C21.6 17.28 22.92 11.4 20.16 6.84ZM17.64 16.08C17.16 16.8 16.56 17.28 15.72 17.4C15.24 17.4 14.64 17.64 12.24 16.68C10.2 15.72 8.51998 14.16 7.31998 12.36C6.59998 11.52 6.23998 10.44 6.11998 9.36C6.11998 8.4 6.47998 7.56 7.07998 6.96C7.31998 6.72 7.55998 6.6 7.79998 6.6H8.39998C8.63998 6.6 8.87998 6.6 8.99998 7.08C9.23998 7.68 9.83998 9.12 9.83998 9.24C9.95998 9.36 9.95998 9.6 9.83998 9.72C9.95998 9.96 9.83998 10.2 9.71998 10.32C9.59998 10.44 9.47998 10.68 9.35998 10.8C9.11998 10.92 8.99998 11.16 9.11998 11.4C9.59998 12.12 10.2 12.84 10.8 13.44C11.52 14.04 12.24 14.52 13.08 14.88C13.32 15 13.56 15 13.68 14.76C13.8 14.52 14.4 13.92 14.64 13.68C14.88 13.44 15 13.44 15.24 13.56L17.16 14.52C17.4 14.64 17.64 14.76 17.76 14.88C17.88 15.24 17.88 15.72 17.64 16.08Z" fill="currentColor"/>
        </symbol>
        <symbol viewBox="0 0 24 24" id="icon-arrow-button">
            <path fill-rule="evenodd" clip-rule="evenodd" d="M12 21.6C14.5461 21.6 16.9879 20.5886 18.7882 18.7882C20.5886 16.9879 21.6 14.5461 21.6 12C21.6 9.45395 20.5886 7.01215 18.7882 5.2118C16.9879 3.41145 14.5461 2.40002 12 2.40002C9.45395 2.40002 7.01215 3.41145 5.2118 5.2118C3.41145 7.01215 2.40002 9.45395 2.40002 12C2.40002 14.5461 3.41145 16.9879 5.2118 18.7882C7.01215 20.5886 9.45395 21.6 12 21.6ZM16.448 11.152L12.848 7.55202C12.623 7.3273 12.318 7.20108 12 7.20108C11.682 7.20108 11.377 7.3273 11.152 7.55202L7.55202 11.152C7.34006 11.3795 7.22466 11.6804 7.23014 11.9913C7.23563 12.3021 7.36157 12.5988 7.58143 12.8186C7.80129 13.0385 8.09791 13.1644 8.40879 13.1699C8.71967 13.1754 9.02054 13.06 9.24802 12.848L10.8 11.297V15.6C10.8 15.9183 10.9265 16.2235 11.1515 16.4486C11.3765 16.6736 11.6818 16.8 12 16.8C12.3183 16.8 12.6235 16.6736 12.8486 16.4486C13.0736 16.2235 13.2 15.9183 13.2 15.6V11.297L14.752 12.848C14.9795 13.06 15.2804 13.1754 15.5913 13.1699C15.9021 13.1644 16.1988 13.0385 16.4186 12.8186C16.6385 12.5988 16.7644 12.3021 16.7699 11.9913C16.7754 11.6804 16.66 11.3795 16.448 11.152Z" fill="currentColor"/>
        </symbol>
        <symbol viewBox="0 0 24 24" id="angle-down">
            <path d="M19 9L12 16L5 9" fill="transparent" stroke="black" stroke-width="2" stroke-linecap="round" stroke-linejoin="round"/>
        </symbol>
        <symbol viewBox="0 0 30 30" id="icon-trash">
            <g clip-path="url(#clip0_100_16091)">
                <path d="M5.00195 7.5H25.0019L23.0269 25.275C22.9592 25.8867 22.6683 26.452 22.2098 26.8625C21.7512 27.2731 21.1574 27.5 20.5419 27.5H9.46195C8.8465 27.5 8.25265 27.2731 7.79414 26.8625C7.33562 26.452 7.04465 25.8867 6.97695 25.275L5.00195 7.5Z" fill="transparent" stroke="currentColor" stroke-width="3.33333" stroke-linecap="round" stroke-linejoin="round"/>
                <path d="M9.1832 3.93387C9.38539 3.50508 9.70534 3.14262 10.1057 2.88876C10.5061 2.6349 10.9704 2.50012 11.4445 2.50012H18.5595C19.0337 2.49988 19.4983 2.63455 19.8989 2.88843C20.2995 3.1423 20.6197 3.50489 20.822 3.93387L22.502 7.50012H7.50195L9.1832 3.93387Z" fill="transparent" stroke="currentColor" stroke-width="3.33333" stroke-linecap="round" stroke-linejoin="round"/>
                <path d="M2.50195 7.5H27.502" fill="transparent" stroke="currentColor" stroke-width="3.33333" stroke-linecap="round" stroke-linejoin="round"/>
                <path d="M12.502 13.7501V20.0001" fill="transparent" stroke="currentColor" stroke-width="3.33333" stroke-linecap="round" stroke-linejoin="round"/>
                <path d="M17.502 13.7501V20.0001" fill="transparent" stroke="currentColor" stroke-width="3.33333" stroke-linecap="round" stroke-linejoin="round"/>
            </g>
            <defs>
                <clipPath id="clip0_100_16091">
                    <rect width="30" height="30" fill="white"/>
                </clipPath>
            </defs>
        </symbol>
        <symbol viewBox="0 0 25 25" id="icon-checkbox">
            <!--<g clip-path="url(#clip0_100_16109)">
                <path d="M12.5 0.78125C6.02773 0.78125 0.78125 6.02812 0.78125 12.5C0.78125 18.9719 6.02812 24.2188 12.5 24.2188C18.9719 24.2188 24.2188 18.9719 24.2188 12.5C24.2188 6.02812 18.9719 0.78125 12.5 0.78125ZM9.77539 19.5312L9.76758 19.5234L9.76094 19.5312L4.29688 13.9062L7.04258 11.1078L9.76797 13.9141L17.9711 5.46914L20.7031 8.28086L9.77539 19.5312Z" fill="currentColor"/>
            </g>
            <rect x="1.5" y="1.5" width="22" height="22" rx="11" fill="transparent" stroke="currentColor" stroke-width="3"/>
            <defs>
                <clipPath id="clip0_100_16109">
                    <rect width="25" height="25" rx="12.5" fill="white"/>
                </clipPath>
            </defs>-->
            <path d="M12.5 0.78125C6.02773 0.78125 0.78125 6.02812 0.78125 12.5C0.78125 18.9719 6.02812 24.2188 12.5 24.2188C18.9719 24.2188 24.2188 18.9719 24.2188 12.5C24.2188 6.02812 18.9719 0.78125 12.5 0.78125ZM9.77539 19.5312L9.76758 19.5234L9.76094 19.5312L4.29688 13.9062L7.04258 11.1078L9.76797 13.9141L17.9711 5.46914L20.7031 8.28086L9.77539 19.5312Z" fill="#5D4037"/>
        </symbol>
        <symbol viewBox="0 0 44 44" id="icon-calendar">
            <path d="M3.66602 21.9999C3.66602 15.0864 3.66602 11.6288 5.81468 9.48192C7.96152 7.33325 11.4192 7.33325 18.3327 7.33325H25.666C32.5795 7.33325 36.0372 7.33325 38.184 9.48192C40.3327 11.6288 40.3327 15.0864 40.3327 21.9999V25.6666C40.3327 32.5801 40.3327 36.0378 38.184 38.1846C36.0372 40.3333 32.5795 40.3333 25.666 40.3333H18.3327C11.4192 40.3333 7.96152 40.3333 5.81468 38.1846C3.66602 36.0378 3.66602 32.5801 3.66602 25.6666V21.9999Z" fill="transparent" stroke="currentColor" stroke-width="2"/>
            <path d="M12.832 7.33325V4.58325M31.1654 7.33325V4.58325M4.58203 16.4999H39.4154" fill="transparent" stroke="currentColor" stroke-width="2" stroke-linecap="round"/>
            <path d="M33 31.1667C33 31.6529 32.8068 32.1192 32.463 32.463C32.1192 32.8068 31.6529 33 31.1667 33C30.6804 33 30.2141 32.8068 29.8703 32.463C29.5265 32.1192 29.3333 31.6529 29.3333 31.1667C29.3333 30.6804 29.5265 30.2141 29.8703 29.8703C30.2141 29.5265 30.6804 29.3333 31.1667 29.3333C31.6529 29.3333 32.1192 29.5265 32.463 29.8703C32.8068 30.2141 33 30.6804 33 31.1667ZM33 23.8333C33 24.3196 32.8068 24.7859 32.463 25.1297C32.1192 25.4735 31.6529 25.6667 31.1667 25.6667C30.6804 25.6667 30.2141 25.4735 29.8703 25.1297C29.5265 24.7859 29.3333 24.3196 29.3333 23.8333C29.3333 23.3471 29.5265 22.8808 29.8703 22.537C30.2141 22.1932 30.6804 22 31.1667 22C31.6529 22 32.1192 22.1932 32.463 22.537C32.8068 22.8808 33 23.3471 33 23.8333ZM23.8333 31.1667C23.8333 31.6529 23.6402 32.1192 23.2964 32.463C22.9525 32.8068 22.4862 33 22 33C21.5138 33 21.0475 32.8068 20.7036 32.463C20.3598 32.1192 20.1667 31.6529 20.1667 31.1667C20.1667 30.6804 20.3598 30.2141 20.7036 29.8703C21.0475 29.5265 21.5138 29.3333 22 29.3333C22.4862 29.3333 22.9525 29.5265 23.2964 29.8703C23.6402 30.2141 23.8333 30.6804 23.8333 31.1667ZM23.8333 23.8333C23.8333 24.3196 23.6402 24.7859 23.2964 25.1297C22.9525 25.4735 22.4862 25.6667 22 25.6667C21.5138 25.6667 21.0475 25.4735 20.7036 25.1297C20.3598 24.7859 20.1667 24.3196 20.1667 23.8333C20.1667 23.3471 20.3598 22.8808 20.7036 22.537C21.0475 22.1932 21.5138 22 22 22C22.4862 22 22.9525 22.1932 23.2964 22.537C23.6402 22.8808 23.8333 23.3471 23.8333 23.8333ZM14.6667 31.1667C14.6667 31.6529 14.4735 32.1192 14.1297 32.463C13.7859 32.8068 13.3196 33 12.8333 33C12.3471 33 11.8808 32.8068 11.537 32.463C11.1932 32.1192 11 31.6529 11 31.1667C11 30.6804 11.1932 30.2141 11.537 29.8703C11.8808 29.5265 12.3471 29.3333 12.8333 29.3333C13.3196 29.3333 13.7859 29.5265 14.1297 29.8703C14.4735 30.2141 14.6667 30.6804 14.6667 31.1667ZM14.6667 23.8333C14.6667 24.3196 14.4735 24.7859 14.1297 25.1297C13.7859 25.4735 13.3196 25.6667 12.8333 25.6667C12.3471 25.6667 11.8808 25.4735 11.537 25.1297C11.1932 24.7859 11 24.3196 11 23.8333C11 23.3471 11.1932 22.8808 11.537 22.537C11.8808 22.1932 12.3471 22 12.8333 22C13.3196 22 13.7859 22.1932 14.1297 22.537C14.4735 22.8808 14.6667 23.3471 14.6667 23.8333Z" fill="currentColor"/>
        </symbol>
        <symbol viewBox="0 0 24 24" id="icon-tabler">
            <path d="M3 21H21M9 8H10M9 12H10M9 16H10M14 8H15M14 12H15M14 16H15M5 21V5C5 4.46957 5.21071 3.96086 5.58579 3.58579C5.96086 3.21071 6.46957 3 7 3H17C17.5304 3 18.0391 3.21071 18.4142 3.58579C18.7893 3.96086 19 4.46957 19 5V21" fill="transparent" stroke="currentColor" stroke-width="2" stroke-linecap="round" stroke-linejoin="round"/>
        </symbol>
        <symbol viewBox="0 0 24 24" id="icon-cell">
            <path d="M5 4H9L11 9L8.5 10.5C9.57096 12.6715 11.3285 14.429 13.5 15.5L15 13L20 15V19C20 19.5304 19.7893 20.0391 19.4142 20.4142C19.0391 20.7893 18.5304 21 18 21C14.0993 20.763 10.4202 19.1065 7.65683 16.3432C4.8935 13.5798 3.23705 9.90074 3 6C3 5.46957 3.21071 4.96086 3.58579 4.58579C3.96086 4.21071 4.46957 4 5 4Z" fill="transparent" stroke="currentColor" stroke-width="2" stroke-linecap="round" stroke-linejoin="round"/>
        </symbol>
        <symbol viewBox="0 0 22 22" id="icon-card">
            <g clip-path="url(#clip0_133_6958)">
                <path d="M19.25 4.125C19.6147 4.125 19.9644 4.26987 20.2223 4.52773C20.4801 4.78559 20.625 5.13533 20.625 5.5V16.5C20.625 16.8647 20.4801 17.2144 20.2223 17.4723C19.9644 17.7301 19.6147 17.875 19.25 17.875H2.75C2.38533 17.875 2.03559 17.7301 1.77773 17.4723C1.51987 17.2144 1.375 16.8647 1.375 16.5V5.5C1.375 5.13533 1.51987 4.78559 1.77773 4.52773C2.03559 4.26987 2.38533 4.125 2.75 4.125H19.25ZM2.75 2.75C2.02065 2.75 1.32118 3.03973 0.805456 3.55546C0.289731 4.07118 0 4.77065 0 5.5L0 16.5C0 17.2293 0.289731 17.9288 0.805456 18.4445C1.32118 18.9603 2.02065 19.25 2.75 19.25H19.25C19.9793 19.25 20.6788 18.9603 21.1945 18.4445C21.7103 17.9288 22 17.2293 22 16.5V5.5C22 4.77065 21.7103 4.07118 21.1945 3.55546C20.6788 3.03973 19.9793 2.75 19.25 2.75H2.75Z" fill="currentColor"/>
                <path d="M2.75 7.5625C2.75 7.38016 2.82243 7.2053 2.95136 7.07636C3.0803 6.94743 3.25516 6.875 3.4375 6.875H6.1875C6.36984 6.875 6.5447 6.94743 6.67364 7.07636C6.80257 7.2053 6.875 7.38016 6.875 7.5625V8.9375C6.875 9.11984 6.80257 9.2947 6.67364 9.42364C6.5447 9.55257 6.36984 9.625 6.1875 9.625H3.4375C3.25516 9.625 3.0803 9.55257 2.95136 9.42364C2.82243 9.2947 2.75 9.11984 2.75 8.9375V7.5625ZM2.75 11.6875C2.75 11.5052 2.82243 11.3303 2.95136 11.2014C3.0803 11.0724 3.25516 11 3.4375 11H10.3125C10.4948 11 10.6697 11.0724 10.7986 11.2014C10.9276 11.3303 11 11.5052 11 11.6875C11 11.8698 10.9276 12.0447 10.7986 12.1736C10.6697 12.3026 10.4948 12.375 10.3125 12.375H3.4375C3.25516 12.375 3.0803 12.3026 2.95136 12.1736C2.82243 12.0447 2.75 11.8698 2.75 11.6875ZM2.75 14.4375C2.75 14.2552 2.82243 14.0803 2.95136 13.9514C3.0803 13.8224 3.25516 13.75 3.4375 13.75H4.8125C4.99484 13.75 5.1697 13.8224 5.29864 13.9514C5.42757 14.0803 5.5 14.2552 5.5 14.4375C5.5 14.6198 5.42757 14.7947 5.29864 14.9236C5.1697 15.0526 4.99484 15.125 4.8125 15.125H3.4375C3.25516 15.125 3.0803 15.0526 2.95136 14.9236C2.82243 14.7947 2.75 14.6198 2.75 14.4375ZM6.875 14.4375C6.875 14.2552 6.94743 14.0803 7.07636 13.9514C7.2053 13.8224 7.38016 13.75 7.5625 13.75H8.9375C9.11984 13.75 9.2947 13.8224 9.42364 13.9514C9.55257 14.0803 9.625 14.2552 9.625 14.4375C9.625 14.6198 9.55257 14.7947 9.42364 14.9236C9.2947 15.0526 9.11984 15.125 8.9375 15.125H7.5625C7.38016 15.125 7.2053 15.0526 7.07636 14.9236C6.94743 14.7947 6.875 14.6198 6.875 14.4375ZM11 14.4375C11 14.2552 11.0724 14.0803 11.2014 13.9514C11.3303 13.8224 11.5052 13.75 11.6875 13.75H13.0625C13.2448 13.75 13.4197 13.8224 13.5486 13.9514C13.6776 14.0803 13.75 14.2552 13.75 14.4375C13.75 14.6198 13.6776 14.7947 13.5486 14.9236C13.4197 15.0526 13.2448 15.125 13.0625 15.125H11.6875C11.5052 15.125 11.3303 15.0526 11.2014 14.9236C11.0724 14.7947 11 14.6198 11 14.4375ZM15.125 14.4375C15.125 14.2552 15.1974 14.0803 15.3264 13.9514C15.4553 13.8224 15.6302 13.75 15.8125 13.75H17.1875C17.3698 13.75 17.5447 13.8224 17.6736 13.9514C17.8026 14.0803 17.875 14.2552 17.875 14.4375C17.875 14.6198 17.8026 14.7947 17.6736 14.9236C17.5447 15.0526 17.3698 15.125 17.1875 15.125H15.8125C15.6302 15.125 15.4553 15.0526 15.3264 14.9236C15.1974 14.7947 15.125 14.6198 15.125 14.4375Z" fill="currentColor"/>
            </g>
            <defs>
                <clipPath id="clip0_133_6958">
                    <rect width="22" height="22" fill="white"/>
                </clipPath>
            </defs>
        </symbol>
        <symbol viewBox="0 0 22 22" id="icon-cash">
            <path d="M10.9993 11.4583C10.1484 11.4583 9.33239 11.7963 8.73071 12.398C8.12904 12.9996 7.79102 13.8157 7.79102 14.6666C7.79102 15.5175 8.12904 16.3335 8.73071 16.9352C9.33239 17.5369 10.1484 17.8749 10.9993 17.8749C11.8503 17.8749 12.6663 17.5369 13.268 16.9352C13.8697 16.3335 14.2077 15.5175 14.2077 14.6666C14.2077 13.8157 13.8697 12.9996 13.268 12.398C12.6663 11.7963 11.8503 11.4583 10.9993 11.4583ZM9.62435 14.6666C9.62435 14.3019 9.76921 13.9522 10.0271 13.6943C10.2849 13.4365 10.6347 13.2916 10.9993 13.2916C11.364 13.2916 11.7138 13.4365 11.9716 13.6943C12.2295 13.9522 12.3743 14.3019 12.3743 14.6666C12.3743 15.0313 12.2295 15.381 11.9716 15.6389C11.7138 15.8967 11.364 16.0416 10.9993 16.0416C10.6347 16.0416 10.2849 15.8967 10.0271 15.6389C9.76921 15.381 9.62435 15.0313 9.62435 14.6666Z" fill="currentColor"/>
            <path d="M16.0655 4.68959L13.1514 0.604004L2.4365 9.16384L1.8425 9.15742V9.16659H1.375V20.1666H20.625V9.16659H19.7432L17.9887 4.03417L16.0655 4.68959ZM17.8062 9.16659H8.61392L15.4605 6.83275L16.8557 6.38634L17.8062 9.16659ZM14.2542 5.30742L7.18667 7.71642L12.7838 3.24492L14.2542 5.30742ZM3.20833 16.6548V12.6765C3.59507 12.5395 3.94635 12.3178 4.23655 12.0278C4.52676 11.7377 4.74858 11.3866 4.88583 10.9999H17.1142C17.2514 11.3867 17.4732 11.738 17.7634 12.0282C18.0536 12.3184 18.4049 12.5402 18.7917 12.6774V16.6558C18.4049 16.793 18.0536 17.0147 17.7634 17.3049C17.4732 17.5951 17.2514 17.9465 17.1142 18.3333H4.88767C4.75034 17.9461 4.5283 17.5945 4.23777 17.3042C3.94724 17.0138 3.59553 16.792 3.20833 16.6548Z" fill="currentColor"/>
        </symbol>
        <symbol viewBox="0 0 24 25" id="icon-hamburger">
            <path d="M4 18.5H20M4 6.5H20M4 12.5H20" stroke="currentColor" stroke-width="2" stroke-linecap="round" stroke-linejoin="round"/>
        </symbol>
        <symbol viewBox="0 0 24 24" id="icon-close">
            <path d="M4 19L18.5 5M4 5L18.5 19" stroke="#fff" stroke-width="2" stroke-linecap="round" stroke-linejoin="round"/>
        </symbol>
        <symbol viewBox="0 0 36 36" id="icon-minus">
            <path d="M27 18H9" stroke="currentColor" stroke-width="3" stroke-linecap="round" stroke-linejoin="round"/>
        </symbol>
        <symbol viewBox="0 0 36 36" id="icon-plus">
            <path d="M18 9V18M18 18V27M18 18H27M18 18H9" stroke="currentColor" stroke-width="3" stroke-linecap="round" stroke-linejoin="round"/>
        </symbol>
        <symbol viewBox="0 0 60 60" id="icon-note">
            <path fill="transparent" d="M21.25 31.25H38.75M21.25 38.75H31.25" stroke="currentColor" stroke-width="4" stroke-linecap="round"/>
            <path fill="transparent" d="M13.75 14.75C13.75 12.65 13.75 11.6 14.1575 10.7975C14.5171 10.0913 15.0913 9.51713 15.7975 9.1575C16.5975 8.75 17.6475 8.75 19.75 8.75H31.265C32.1825 8.75 32.64 8.75 33.0725 8.8525C33.455 8.945 33.8225 9.0975 34.155 9.3025C34.535 9.535 34.8575 9.86 35.505 10.5075L44.4925 19.4925C45.1425 20.1425 45.4675 20.4675 45.6975 20.8425C45.9025 21.18 46.055 21.545 46.1475 21.9275C46.25 22.36 46.25 22.8175 46.25 23.735V45.25C46.25 47.35 46.25 48.4 45.8425 49.2025C45.4829 49.9087 44.9087 50.4829 44.2025 50.8425C43.4025 51.25 42.3525 51.25 40.25 51.25H19.75C17.65 51.25 16.6 51.25 15.7975 50.8425C15.0913 50.4829 14.5171 49.9087 14.1575 49.2025C13.75 48.4025 13.75 47.3525 13.75 45.25V14.75Z" stroke="currentColor" stroke-width="4"/>
            <path fill="transparent" d="M31.25 8.75V17.75C31.25 19.85 31.25 20.9 31.66 21.7025C32.019 22.4084 32.5922 22.9824 33.2975 23.3425C34.0975 23.75 35.1475 23.75 37.25 23.75H46.25" stroke="currentColor" stroke-width="4"/>
        </symbol>
        <symbol viewBox="0 0 60 60" id="icon-clean">
            <g clip-path="url(#clip0_64_5812)">
                <path fill="transparent" d="M22.501 16.875C20.0635 27.9375 20.0635 39.5625 22.501 50.625H37.501C39.9385 39.5625 39.9385 27.9375 37.501 16.875H22.501Z" stroke="currentColor" stroke-width="4" stroke-miterlimit="10" stroke-linecap="round" stroke-linejoin="round"/>
                <path fill="transparent" d="M38.25 48.75C39.9375 48.75 41.625 49.875 41.8125 51.1875L43.125 58.125H16.875L18.1875 51.1875C18.5625 49.6875 20.0625 48.75 21.75 48.75" stroke="currentColor" stroke-width="4" stroke-miterlimit="10" stroke-linecap="round" stroke-linejoin="round"/>
                <path fill="transparent" d="M30 1.875V16.875" stroke="currentColor" stroke-width="4" stroke-miterlimit="10" stroke-linecap="round" stroke-linejoin="round"/>
                <path d="M30 26.25C29.8125 26.25 29.4375 26.25 29.25 26.0625C29.0625 25.875 28.875 25.875 28.6875 25.6875C28.3125 25.3125 28.125 24.9375 28.125 24.375C28.125 23.8125 28.3125 23.4375 28.6875 23.0625C28.875 22.875 29.0625 22.6875 29.25 22.6875C30 22.3125 30.75 22.5 31.3125 23.0625C31.6875 23.4375 31.875 23.8125 31.875 24.375C31.875 24.5625 31.875 24.5625 31.875 24.75C31.875 24.9375 31.875 24.9375 31.6875 25.125C31.6875 25.3125 31.5 25.3125 31.5 25.5L31.3125 25.6875C30.9375 26.0625 30.5625 26.25 30 26.25Z" fill="currentColor"/>
            </g>
            <defs>
                <clipPath id="clip0_64_5812">
                    <rect width="60" height="60" fill="white"/>
                </clipPath>
            </defs>
        </symbol>
        <symbol viewBox="0 0 139 139" id="icon-play">
            <path d="M1.15 69.5C1.15 31.7537 31.7537 1.15 69.5 1.15C107.246 1.15 137.85 31.7537 137.85 69.5C137.85 107.246 107.246 137.85 69.5 137.85C31.7537 137.85 1.15 107.246 1.15 69.5ZM124.031 69.5C124.031 39.3854 99.6146 14.9694 69.5 14.9694C39.3854 14.9694 14.9694 39.3854 14.9694 69.5C14.9694 99.6146 39.3854 124.031 69.5 124.031C99.6146 124.031 124.031 99.6146 124.031 69.5ZM53.275 36.9479L102.175 69.5L53.275 102.052V36.9479Z" stroke="white" fill="transparent" stroke-width="2.3"/>
        </symbol>
        <symbol viewBox="0 0 " id="icon-star">
            <path d="M10.1514 2.41362C10.4447 1.63996 11.5548 1.63996 11.849 2.41362L13.7465 7.66979C13.8127 7.84101 13.9293 7.98813 14.0808 8.09173C14.2324 8.19532 14.4118 8.25052 14.5954 8.25004H19.2584C20.1201 8.25004 20.4959 9.32254 19.8185 9.84779L16.5002 12.8334C16.3515 12.9476 16.2429 13.1061 16.1899 13.2859C16.1369 13.4657 16.1422 13.6577 16.205 13.8344L17.4169 18.9705C17.712 19.7955 16.7569 20.504 16.0345 19.9962L11.5273 17.1362C11.3729 17.0277 11.1889 16.9695 11.0002 16.9695C10.8115 16.9695 10.6275 17.0277 10.4731 17.1362L5.96586 19.9962C5.24444 20.504 4.28836 19.7945 4.58353 18.9705L5.79536 13.8344C5.85822 13.6577 5.86352 13.4657 5.81049 13.2859C5.75746 13.1061 5.64884 12.9476 5.50019 12.8334L2.18186 9.84779C1.50353 9.32254 1.88119 8.25004 2.74103 8.25004H7.40411C7.58771 8.25065 7.76717 8.1955 7.91874 8.09189C8.07031 7.98828 8.18685 7.84108 8.25294 7.66979L10.1504 2.41362H10.1514Z" fill="#FF5C00"/>
        </symbol>
        <symbol viewBox="0 0 22 22" id="icon-comment">
            <path fill-rule="evenodd" clip-rule="evenodd" d="M19.8002 10.9999C19.8002 15.2533 15.8604 18.6999 11.0002 18.6999C9.43812 18.7065 7.89744 18.3368 6.50853 17.6219L2.2002 18.6999L3.67236 15.2643C2.74286 14.0433 2.2002 12.5775 2.2002 10.9999C2.2002 6.74659 6.14003 3.29993 11.0002 3.29993C15.8604 3.29993 19.8002 6.74659 19.8002 10.9999ZM7.70019 9.89993H5.5002V12.0999H7.70019V9.89993ZM16.5002 9.89993H14.3002V12.0999H16.5002V9.89993ZM9.90019 9.89993H12.1002V12.0999H9.90019V9.89993Z" fill="#60733C"/>
            <!--<path d="M9.90019 9.89993H12.1002V12.0999H9.90019V9.89993Z" fill="#60733C"/>
            <path d="M16.5002 9.89993H14.3002V12.0999H16.5002V9.89993Z" fill="#60733C"/>
            <path d="M7.70019 9.89993H5.5002V12.0999H7.70019V9.89993Z" fill="#60733C"/>-->
        </symbol>
        <symbol viewBox="0 0 24 24" id="icon-user">
            <path d="M14.8277 9.82796C15.2097 9.45897 15.5144 9.01759 15.7241 8.52958C15.9337 8.04156 16.0441 7.51668 16.0487 6.98556C16.0533 6.45445 15.9521 5.92773 15.751 5.43614C15.5498 4.94456 15.2528 4.49795 14.8773 4.12238C14.5017 3.74681 14.0551 3.4498 13.5635 3.24867C13.0719 3.04755 12.5452 2.94634 12.0141 2.95096C11.483 2.95557 10.9581 3.06592 10.4701 3.27555C9.98204 3.48519 9.54066 3.78992 9.17168 4.17196C8.44304 4.92637 8.03987 5.93678 8.04898 6.98556C8.05809 8.03435 8.47877 9.0376 9.2204 9.77923C9.96203 10.5209 10.9653 10.9415 12.0141 10.9507C13.0629 10.9598 14.0733 10.5566 14.8277 9.82796Z" stroke="currentColor" fill="transparent" stroke-width="2" stroke-linecap="round" stroke-linejoin="round"/>
            <path d="M7.05 16.05C8.02897 15.0709 9.2763 14.4042 10.6342 14.134C11.9922 13.8639 13.3997 14.0025 14.6789 14.5324C15.958 15.0622 17.0513 15.9595 17.8204 17.1108C18.5896 18.262 19.0001 19.6155 19 21H5C4.99993 20.0807 5.18094 19.1705 5.53268 18.3211C5.88442 17.4718 6.40001 16.7001 7.05 16.05Z" stroke="currentColor" fill="transparent"  stroke-width="2" stroke-linecap="round" stroke-linejoin="round"/>
        </symbol>
        <symbol viewBox="0 0 31 6" id="icon-points">
            <circle cx="2.5" cy="3" r="2.5" fill="currentColor"/>
            <circle cx="15.5" cy="3" r="2.5" fill="currentColor"/>
            <circle cx="28.5" cy="3" r="2.5" fill="currentColor"/>
        </symbol>
        <symbol viewBox="0 0 " id="icon-">
        </symbol>
    </svg>

</svg>